<?xml version="1.0" encoding="UTF-8" standalone="no"?>
<!-- Created with Inkscape (http://www.inkscape.org/) -->

<svg
   width="170.23503mm"
   height="170.2314mm"
   viewBox="0 0 170.23503 170.2314"
   version="1.1"
   id="svg5"
   xmlns="http://www.w3.org/2000/svg"
   xmlns:svg="http://www.w3.org/2000/svg">
  <defs
     id="defs2" />
  <g
     id="layer1"
     transform="translate(-21.751319,-44.35061)">
    <path
       style="fill:#F5FBEF;stroke-width:0.264583"
       d="m 98.544516,213.3269 c -20.23727,-1.92887 -40.44744,-12.12402 -53.975,-27.22801 -12.517573,-13.97632 -19.762428,-30.37914 -21.54778,-48.7856 -0.357635,-3.68712 -0.361206,-11.98674 -0.0067,-15.53643 1.442386,-14.44205 5.896236,-26.9889 13.79154,-38.85188 3.35586,-5.0423 5.40331,-7.56746 9.73723,-12.0091 9.82239,-10.06652 20.27525,-16.72 33.21528,-21.14229 8.8558,-3.02649 17.46948,-4.42253 27.290194,-4.42298 11.70733,-5.4e-4 22.43874,2.21313 33.31457,6.87211 6.06713,2.59903 13.82428,7.27281 19.16711,11.54842 2.96132,2.36981 9.06737,8.34424 11.64561,11.39457 11.35951,13.43955 18.03458,29.5103 19.5958,47.17843 0.43595,4.93365 0.17613,14.69292 -0.51092,19.19062 -1.49246,9.77034 -4.6869,19.45597 -9.11273,27.63001 -13.59514,25.10885 -38.14991,41.43582 -66.44444,44.18027 -3.34105,0.32407 -12.67939,0.31359 -16.159784,-0.0181 z m -19.31458,-27.49305 c 10.84035,-1.54746 19.40941,-9.19357 21.969284,-19.60302 0.22799,-0.92711 0.4852,-3.2037 0.57158,-5.05909 0.10216,-2.19424 0.25937,-3.37336 0.44976,-3.37322 0.16099,1.2e-4 1.18568,0.19772 2.27709,0.43912 2.77819,0.6145 9.68255,0.60362 12.56771,-0.0198 7.06452,-1.52647 12.79251,-4.60623 17.74374,-9.54026 5.23007,-5.2119 8.39825,-11.28357 9.80606,-18.79283 0.4447,-2.37206 0.49603,-4.06945 0.49603,-16.40416 0,-11.93362 -0.0607,-14.07879 -0.45762,-16.17456 -1.36206,-7.1916 -4.76689,-13.67529 -9.85159,-18.75999 -4.92567,-4.92567 -10.55542,-7.97075 -17.41022,-9.41701 -3.51817,-0.74229 -9.83466,-0.79868 -13.0264,-0.1163 -6.863434,1.46738 -12.631494,4.50015 -17.480774,9.19116 -4.94912,4.78759 -8.08507,10.32967 -9.85548,17.41732 l -0.69395,2.77813 -0.0807,43.85468 -0.0807,43.85469 0.60207,-0.005 c 0.33114,-0.003 1.43551,-0.12422 2.45415,-0.26963 z m 29.223384,-53.53132 c -1.64969,-0.44492 -2.92328,-1.28084 -4.32238,-2.83698 -2.14374,-2.38435 -2.14684,-2.40742 -2.14684,-15.99079 v -11.9121 l 0.86799,-1.76285 c 3.36097,-6.82602 12.36228,-6.80614 15.73336,0.0348 0.58904,1.19533 0.59754,1.36395 0.6729,13.34868 0.085,13.51591 0.0791,13.57116 -1.68418,15.88052 -2.19871,2.87956 -5.76168,4.14475 -9.12085,3.23878 z"
       id="path1216" />
  </g>
</svg>
