<?xml version="1.0" encoding="UTF-8" standalone="no"?>
<!-- Created with Inkscape (http://www.inkscape.org/) -->

<svg
   width="1200mm"
   height="628mm"
   viewBox="0 0 1200 628"
   version="1.1"
   id="svg5"
   inkscape:version="1.1.2 (0a00cf5339, 2022-02-04, custom)"
   sodipodi:docname="banner.svg"
   inkscape:export-filename="D:\Source\GitHubClones\poolygotchi\docs\img\banner.png"
   inkscape:export-xdpi="79.297562"
   inkscape:export-ydpi="79.297562"
   xmlns:inkscape="http://www.inkscape.org/namespaces/inkscape"
   xmlns:sodipodi="http://sodipodi.sourceforge.net/DTD/sodipodi-0.dtd"
   xmlns:xlink="http://www.w3.org/1999/xlink"
   xmlns="http://www.w3.org/2000/svg"
   xmlns:svg="http://www.w3.org/2000/svg">
  <sodipodi:namedview
     id="namedview7"
     pagecolor="#1e1e1e"
     bordercolor="#111111"
     borderopacity="1"
     inkscape:pageshadow="0"
     inkscape:pageopacity="0"
     inkscape:pagecheckerboard="1"
     inkscape:document-units="mm"
     showgrid="false"
     inkscape:zoom="0.068268466"
     inkscape:cx="322.25713"
     inkscape:cy="380.84933"
     inkscape:window-width="1920"
     inkscape:window-height="1017"
     inkscape:window-x="-8"
     inkscape:window-y="32"
     inkscape:window-maximized="1"
     inkscape:current-layer="layer5"
     fit-margin-top="0"
     fit-margin-left="0"
     fit-margin-right="0"
     fit-margin-bottom="0"
     lock-margins="true" />
  <defs
     id="defs2">
    <linearGradient
       inkscape:collect="always"
       id="linearGradient25468">
      <stop
         style="stop-color:#e85d75;stop-opacity:1"
         offset="0"
         id="stop25464" />
      <stop
         style="stop-color:#f5fbef;stop-opacity:1"
         offset="0.48243436"
         id="stop26108" />
      <stop
         style="stop-color:#40f99b;stop-opacity:1"
         offset="1"
         id="stop25466" />
    </linearGradient>
    <linearGradient
       inkscape:collect="always"
       id="linearGradient9713">
      <stop
         style="stop-color:#ffffff;stop-opacity:0.42745098"
         offset="0"
         id="stop9709" />
      <stop
         style="stop-color:#000000;stop-opacity:0"
         offset="1"
         id="stop9711" />
    </linearGradient>
    <linearGradient
       inkscape:collect="always"
       id="linearGradient9525">
      <stop
         style="stop-color:#ffffff;stop-opacity:0.42720306"
         offset="0"
         id="stop9521" />
      <stop
         style="stop-color:#ffffff;stop-opacity:0;"
         offset="1"
         id="stop9523" />
    </linearGradient>
    <linearGradient
       inkscape:collect="always"
       id="linearGradient7154">
      <stop
         style="stop-color:#512bc7;stop-opacity:1"
         offset="0"
         id="stop7150" />
      <stop
         style="stop-color:#2900c0;stop-opacity:1"
         offset="1"
         id="stop7152" />
    </linearGradient>
    <inkscape:path-effect
       effect="bspline"
       id="path-effect2064"
       is_visible="true"
       lpeversion="1"
       weight="33.333333"
       steps="2"
       helper_size="0"
       apply_no_weight="true"
       apply_with_weight="true"
       only_selected="false" />
    <inkscape:path-effect
       effect="bspline"
       id="path-effect1696"
       is_visible="true"
       lpeversion="1"
       weight="33.333333"
       steps="2"
       helper_size="0"
       apply_no_weight="true"
       apply_with_weight="true"
       only_selected="false" />
    <inkscape:path-effect
       effect="bspline"
       id="path-effect1659"
       is_visible="true"
       lpeversion="1"
       weight="33.333333"
       steps="2"
       helper_size="0"
       apply_no_weight="true"
       apply_with_weight="true"
       only_selected="false" />
    <linearGradient
       inkscape:collect="always"
       xlink:href="#linearGradient7154"
       id="linearGradient7156"
       x1="112.15154"
       y1="115.78323"
       x2="110.57948"
       y2="91.923889"
       gradientUnits="userSpaceOnUse"
       gradientTransform="matrix(0.55381454,0,0,0.55381454,225.879,-63.715135)" />
    <linearGradient
       inkscape:collect="always"
       xlink:href="#linearGradient9525"
       id="linearGradient9527"
       x1="138.98399"
       y1="89.996979"
       x2="111.58337"
       y2="139.41127"
       gradientUnits="userSpaceOnUse"
       gradientTransform="matrix(0.55381454,0,0,0.55381454,225.879,-64.72125)" />
    <linearGradient
       inkscape:collect="always"
       xlink:href="#linearGradient9713"
       id="linearGradient9707"
       gradientUnits="userSpaceOnUse"
       gradientTransform="matrix(0.55381454,0,0,0.55381454,225.879,-63.715135)"
       x1="132.27698"
       y1="95.058319"
       x2="107.13811"
       y2="103.57103" />
    <linearGradient
       inkscape:collect="always"
       xlink:href="#linearGradient25468"
       id="linearGradient25470"
       x1="93.787033"
       y1="-25.16917"
       x2="401.26758"
       y2="36.840912"
       gradientUnits="userSpaceOnUse" />
    <linearGradient
       inkscape:collect="always"
       xlink:href="#linearGradient25468"
       id="linearGradient26457"
       gradientUnits="userSpaceOnUse"
       x1="94.271484"
       y1="-29.529257"
       x2="400.78311"
       y2="38.294273" />
    <linearGradient
       inkscape:collect="always"
       xlink:href="#linearGradient25468"
       id="linearGradient26942"
       gradientUnits="userSpaceOnUse"
       x1="95.102463"
       y1="-22.994726"
       x2="404.75443"
       y2="43.462021" />
    <linearGradient
       inkscape:collect="always"
       xlink:href="#linearGradient25468"
       id="linearGradient26944"
       gradientUnits="userSpaceOnUse"
       x1="93.611092"
       y1="-31.514055"
       x2="401.81003"
       y2="40.42366" />
    <linearGradient
       inkscape:collect="always"
       xlink:href="#linearGradient7154"
       id="linearGradient1124"
       x1="252.69713"
       y1="-489.35733"
       x2="818.27496"
       y2="488.99561"
       gradientUnits="userSpaceOnUse" />
  </defs>
  <g
     inkscape:groupmode="layer"
     id="layer2"
     inkscape:label="bg"
     transform="translate(202.50168,257.7294)"
     sodipodi:insensitive="true">
    <rect
       style="display:inline;opacity:1;fill:url(#linearGradient1124);fill-opacity:1;stroke:none;stroke-width:3;stroke-linejoin:round;paint-order:stroke markers fill"
       id="rect1016"
       width="1200"
       height="628"
       x="-128.23019"
       y="-289.51651"
       transform="translate(-74.271484,31.787108)" />
  </g>
  <g
     inkscape:groupmode="layer"
     id="layer3"
     inkscape:label="pooly"
     transform="translate(128.23019,289.51651)" />
  <g
     inkscape:groupmode="layer"
     id="layer4"
     inkscape:label="eyes"
     transform="translate(128.23019,289.51651)" />
  <g
     inkscape:groupmode="layer"
     id="layer6"
     inkscape:label="pooly-highlight"
     transform="translate(128.23019,289.51651)" />
  <g
     inkscape:label="egg"
     inkscape:groupmode="layer"
     id="layer1"
     style="display:inline"
     transform="translate(128.23019,289.51651)" />
  <g
     inkscape:groupmode="layer"
     id="layer5"
     inkscape:label="egg-highlight"
     style="display:inline"
     transform="translate(128.23019,289.51651)">
    <g
       id="g1338"
       transform="matrix(2.5244211,0,0,2.5244211,-153.70481,8.5283277)">
      <g
         id="g27504"
         transform="matrix(0.91451262,0,0,0.91451262,24.645605,2.0735085)">
        <circle
           style="fill:url(#linearGradient7156);fill-opacity:1;stroke:none;stroke-width:0.0745761;stroke-linejoin:round;stroke-miterlimit:4;stroke-dasharray:none"
           id="path7068"
           cx="288.39328"
           cy="-1.0012559"
           r="11.336243" />
        <ellipse
           style="fill:#000000;fill-opacity:1;stroke:none;stroke-width:0.0553815;stroke-linejoin:round;stroke-miterlimit:4;stroke-dasharray:none"
           id="path7200"
           cx="283.31525"
           cy="-2.7691848"
           rx="2.9405828"
           ry="3.3674414" />
        <ellipse
           style="fill:#000000;fill-opacity:1;stroke:none;stroke-width:0.0553815;stroke-linejoin:round;stroke-miterlimit:4;stroke-dasharray:none"
           id="ellipse7591"
           cx="293.57761"
           cy="-2.7691848"
           rx="2.9405828"
           ry="3.3674414" />
        <ellipse
           style="fill:#ffffff;fill-opacity:1;stroke:none;stroke-width:0.0110275;stroke-linejoin:round;stroke-miterlimit:4;stroke-dasharray:none"
           id="ellipse7593"
           cx="283.69159"
           cy="-4.3759494"
           rx="0.58552706"
           ry="0.67052275" />
        <ellipse
           style="fill:#ffffff;fill-opacity:1;stroke:none;stroke-width:0.0139526;stroke-linejoin:round;stroke-miterlimit:4;stroke-dasharray:none"
           id="ellipse7793"
           cx="284.36743"
           cy="-3.6645279"
           rx="0.74083954"
           ry="0.84838063" />
        <ellipse
           style="fill:#ffffff;fill-opacity:1;stroke:none;stroke-width:0.0110275;stroke-linejoin:round;stroke-miterlimit:4;stroke-dasharray:none"
           id="ellipse7795"
           cx="293.97174"
           cy="-4.3759494"
           rx="0.58552706"
           ry="0.67052275" />
        <ellipse
           style="fill:#ffffff;fill-opacity:1;stroke:none;stroke-width:0.0139526;stroke-linejoin:round;stroke-miterlimit:4;stroke-dasharray:none"
           id="ellipse7797"
           cx="294.64761"
           cy="-3.6645279"
           rx="0.74083954"
           ry="0.84838063" />
        <circle
           style="fill:url(#linearGradient9707);fill-opacity:1;stroke:none;stroke-width:0.0745761;stroke-linejoin:round;stroke-miterlimit:4;stroke-dasharray:none"
           id="circle9685"
           cx="288.39328"
           cy="-1.0012559"
           r="11.336243" />
        <path
           style="display:inline;fill:url(#linearGradient26942);fill-opacity:1;stroke-width:0.553815;stroke-linejoin:round"
           d="m 276.95647,-1.732483 -3.76055,3.7596974 c -0.42035,1.6570464 -0.64708,3.3623022 -0.64708,5.0587193 0,9.4822903 7.04979,17.1692083 15.74626,17.1692083 8.69646,0 15.74654,-7.686918 15.74654,-17.1692083 0,-2.0606166 -0.33345,-4.1344803 -0.94386,-6.11877569 l -1.25752,1.25724209 -3.52073,-3.5210144 -3.92426,3.9233994 -3.99037,-3.9903667 -3.62262,3.6214653 -3.42027,-3.4202755 -2.91829,2.9171516 z"
           id="path2651" />
        <path
           style="display:inline;fill:url(#linearGradient26944);fill-opacity:1;stroke-width:0.553815;stroke-linejoin:round"
           d="m 286.55128,-19.000182 c -7.02503,1.081748 -11.96904,8.444365 -12.75334,16.2150305 l 3.12216,-4.258712 3.97753,2.9170243 2.44017,-3.3284365 3.90114,2.8610336 3.02908,-4.1317444 4.55137,3.3377239 3.28126,-4.4760731 4.01575,2.9453187 1.03618,-1.4133791 c -3.27022,-6.7006949 -9.89273,-11.7008019 -16.6013,-10.6677859 z"
           id="path912" />
        <path
           id="path7824"
           style="fill:url(#linearGradient9527);fill-opacity:1;stroke-width:0.553815;stroke-linejoin:round"
           d="m 285.4194,-18.769614 c 2.13062,3.161055 4.84862,10.0436275 4.84862,10.0436275 l 4.55137,3.3377239 3.28126,-4.4760731 4.01575,2.9453187 1.03618,-1.4133791 C 299.88236,-15.033091 293.06701,-20.64106 285.4194,-18.769614 Z m 2.8757,43.024756 c 8.69646,0 15.74654,-7.686912 15.74654,-17.1692028 0,-2.0606165 -0.33345,-4.1344803 -0.94386,-6.11877565 l -1.25752,1.25723655 -3.52073,-3.5210144 -3.92426,3.9233994 -2.81075,-2.81075276 c 0,0 4.17904,15.45114366 -3.28942,24.43910966 z"
           sodipodi:nodetypes="ccccccccscccccc" />
      </g>
      <g
         aria-label="poolygotchi"
         id="text10713"
         style="font-weight:300;font-size:50.8px;line-height:1.25;font-family:Comfortaa;-inkscape-font-specification:'Comfortaa Light';letter-spacing:0px;word-spacing:0px;fill:url(#linearGradient25470);fill-opacity:1;stroke-width:0.264583">
        <path
           id="path19973"
           style="color:#000000;-inkscape-font-specification:'Comfortaa Light';fill:url(#linearGradient26457);fill-opacity:1;-inkscape-stroke:none"
           d="m 397.67969,-19.466797 c -0.88466,0 -1.75185,0.325243 -2.44922,0.88086 -0.80457,0.63428 -1.1875,1.673999 -1.1875,2.705078 0,0.948165 0.35191,1.886496 0.99414,2.578125 l 0.0312,0.03516 0.0352,0.03125 c 0.68075,0.632128 1.59683,0.99414 2.52539,0.99414 0.94816,0 1.89364,-0.36044 2.56054,-1.027343 0.68458,-0.684581 1.07813,-1.642329 1.07813,-2.611328 0,-1.031692 -0.42515,-2.068604 -1.23828,-2.691407 -0.65915,-0.552331 -1.49408,-0.894531 -2.34961,-0.894531 z m 0,10.5664064 c -0.69668,0 -1.4191,0.2531778 -1.94727,0.7226562 l -0.0273,0.023437 -0.0254,0.027344 c -0.52873,0.5287321 -0.77344,1.2877721 -0.77344,2 V 18.613281 c 0,0.696676 0.25318,1.419103 0.72266,1.947266 l 0.0488,0.05664 0.0547,0.04883 c 0.52817,0.469478 1.25059,0.720703 1.94727,0.720703 0.71223,0 1.47322,-0.242752 2.00195,-0.771485 l 0.0254,-0.02734 0.0254,-0.02734 c 0.46948,-0.528163 0.72266,-1.25059 0.72266,-1.947266 V -6.1269531 c 0,-0.7122279 -0.24471,-1.4712679 -0.77344,-2 -0.52873,-0.5287322 -1.28972,-0.7734375 -2.00195,-0.7734375 z M 362.47656,-20.787109 c -0.69667,0 -1.42105,0.251224 -1.94922,0.720703 l -0.0273,0.02539 -0.0254,0.02539 c -0.52873,0.528732 -0.77344,1.289725 -0.77344,2.001953 V -6.1269531 6.421875 18.613281 c 0,0.696676 0.25318,1.419103 0.72266,1.947266 l 0.0488,0.05664 0.0547,0.04883 c 0.52817,0.469478 1.25255,0.720703 1.94922,0.720703 0.71223,0 1.47127,-0.242752 2,-0.771485 l 0.0274,-0.02734 0.0234,-0.02734 c 0.46948,-0.528163 0.72266,-1.25059 0.72266,-1.947266 V 6.421875 4.3183594 v -1.25 c 0,-1.2925173 0.33939,-2.3835702 1.04687,-3.40234378 0.71701,-1.03249162 1.67487,-1.82837882 2.95508,-2.42382812 l 0.01,-0.00586 0.0117,-0.00391 c 1.27086,-0.6206537 2.71214,-0.9394532 4.3789,-0.9394532 1.696,0 3.14433,0.331879 4.40821,0.9785157 l 0.0156,0.00977 0.0156,0.00586 c 1.27387,0.6079868 2.23194,1.4947212 2.96289,2.7519531 l 0.006,0.0097656 0.006,0.0078125 c 0.73401,1.2139494 1.14062,2.8195692 1.14062,4.890625 V 18.613281 c 0,0.696676 0.25123,1.419103 0.7207,1.947266 l 0.0488,0.05664 0.0566,0.04883 c 0.52817,0.469478 1.25059,0.720703 1.94727,0.720703 0.69667,0 1.44085,-0.261167 1.95117,-0.771485 0.51759,-0.517586 0.82227,-1.273225 0.82227,-2.001953 V 4.9472656 c 0,-2.9765924 -0.59488,-5.56606399 -1.84961,-7.6953125 -1.2284,-2.1180864 -2.96619,-3.7608998 -5.13086,-4.8457031 -2.11913,-1.1124043 -4.51446,-1.6621094 -7.1211,-1.6621094 -2.35321,0 -4.55829,0.5420133 -6.53711,1.6230469 -0.68252,0.3613184 -1.26752,0.8411652 -1.86523,1.3046875 v -11.685547 c 0,-0.712228 -0.24471,-1.473221 -0.77344,-2.001953 -0.52873,-0.528732 -1.28777,-0.771484 -2,-0.771484 z m -20.11719,11.6328121 c -2.74178,0 -5.25173,0.691613 -7.41992,2.0722657 -2.14937,1.3352711 -3.85543,3.1940087 -5.0664,5.5058593 -1.21851,2.32624588 -1.82032,4.9644983 -1.82032,7.8457031 0,2.860063 0.6425,5.4928178 1.93555,7.8203128 l 0.004,0.0059 0.004,0.0078 c 1.31779,2.306133 3.12363,4.167677 5.36524,5.527343 l 0.004,0.002 0.004,0.0039 c 2.29781,1.371275 4.91271,2.054687 7.75195,2.054687 3.94146,0 7.37942,-1.251659 10.07813,-3.722656 0.51539,-0.459954 0.84498,-1.22094 0.80664,-1.935547 -0.0141,-0.72621 -0.36978,-1.441601 -0.88867,-1.921875 -0.49274,-0.477596 -1.24181,-0.767613 -1.92969,-0.705078 -0.64123,0.05829 -1.2599,0.345827 -1.73438,0.767578 l -0.01,0.0078 -0.008,0.0098 c -0.7787,0.721013 -1.69344,1.252083 -2.78907,1.607422 l -0.004,0.002 -0.006,0.002 c -1.08414,0.361381 -2.24905,0.544922 -3.51563,0.544922 -1.936,0 -3.56305,-0.435203 -4.97851,-1.287109 -1.40859,-0.902077 -2.49756,-2.076464 -3.31446,-3.585938 -0.81481,-1.5390946 -1.22656,-3.2500511 -1.22656,-5.2050778 0,-2.0391528 0.37228,-3.7844799 1.08789,-5.28320307 l 0.002,-0.003906 c 0.75667,-1.51178833 1.76479,-2.65868033 3.06445,-3.51757813 1.31454,-0.8467383 2.81087,-1.2753907 4.60351,-1.2753907 3.03294,0 5.36131,1.0850602 7.32422,3.4160157 l -0.0195,-0.0234375 c 0.42013,0.5251541 1.03599,0.93480977 1.7168,1.05859375 l 0.0547,0.009766 0.0566,0.005859 c 0.64303,0.0584578 1.31718,-0.16426996 1.83398,-0.54492188 0.57131,-0.38166114 1.05773,-0.99231089 1.18555,-1.69531257 0.13201,-0.7260871 -0.11698,-1.5174505 -0.5586,-2.0703125 -1.42677,-1.825872 -3.14854,-3.2171476 -5.1289,-4.1152342 -1.96757,-0.9259668 -4.13902,-1.3847658 -6.46485,-1.3847658 z m -28.70312,-8.5859371 c -0.72873,0 -1.48241,0.306632 -2,0.824218 -0.52873,0.528733 -0.77344,1.289726 -0.77344,2.001953 v 7.0292974 h -2.71289 c -0.68418,0 -1.40653,0.2815338 -1.89844,0.7734375 -0.4896,0.4896043 -0.72265,1.1982013 -0.72265,1.8476562 0,0.6494549 0.22499,1.335812 0.66601,1.8398438 l 0.0547,0.0625 0.0625,0.054687 c 0.50403,0.4410278 1.18844,0.6660156 1.83789,0.6660156 h 2.71289 V 10.382812 c 0,2.044482 0.45541,3.94656 1.37305,5.628906 l 0.002,0.0059 0.004,0.0039 c 0.91739,1.643658 2.22712,2.973388 3.86523,3.925782 l 0.01,0.0059 0.01,0.0059 c 1.64786,0.919735 3.52598,1.390672 5.56446,1.427735 h 0.0117 0.0117 1.16797 c 0.71223,0 1.47322,-0.242752 2.00196,-0.771485 0.51758,-0.517586 0.82226,-1.273225 0.82226,-2.001953 0,-0.715212 -0.3082,-1.465965 -0.84375,-1.978515 -0.51255,-0.536433 -1.26465,-0.845703 -1.98047,-0.845703 h -1.11718 c -1.66362,0 -2.84735,-0.477382 -3.83204,-1.458985 -0.98728,-1.017817 -1.4707,-2.245241 -1.4707,-3.947265 V -2.640625 h 5.45508 c 0.64945,0 1.36001,-0.2330519 1.84961,-0.7226563 0.4919,-0.4919037 0.77148,-1.2162135 0.77148,-1.9003906 0,-0.6547951 -0.30255,-1.3497749 -0.79687,-1.8222656 -0.47249,-0.494369 -1.16939,-0.7988281 -1.82422,-0.7988281 h -5.45508 v -7.0292974 c 0,-0.715819 -0.30927,-1.467917 -0.8457,-1.980468 -0.51255,-0.536433 -1.26465,-0.845703 -1.98047,-0.845703 z m -100.32617,8.8417965 c -0.70115,-0.2103438 -1.42782,-0.072679 -2.05078,0.2148437 -0.64696,0.2985951 -1.26171,0.8391462 -1.48633,1.5878907 -0.21015,0.7004862 -0.0721,1.4282063 0.21484,2.0507812 2.7e-4,5.865e-4 -2.7e-4,0.00137 0,0.00195 l 11.0586,24.2402349 -4.81055,10.423828 c -0.29199,0.632654 -0.42753,1.405713 -0.13672,2.123047 0.29081,0.717333 0.916,1.174109 1.5625,1.4375 l 0.0156,0.0078 0.0176,0.0059 c 0.36713,0.137675 0.73691,0.232422 1.14844,0.232422 1.00985,0 1.86637,-0.763981 2.28711,-1.605468 l 0.01,-0.01758 17.07617,-36.9999997 c 0.29199,-0.6326538 0.42948,-1.4076664 0.13867,-2.125 -0.29081,-0.7173336 -0.91795,-1.1741097 -1.56445,-1.4375 h -0.004 l -0.004,-0.00195 c -0.6221,-0.2488406 -1.36289,-0.3358299 -2.03711,-0.0625 -0.67421,0.2733298 -1.14305,0.838071 -1.43359,1.4433594 l -0.004,0.00977 -9.24804,20.0371093 -9.16016,-20.0781249 v -0.00195 c -0.29859,-0.6469559 -0.8411,-1.2617048 -1.58984,-1.4863281 z M 201.0332,-20.787109 c -0.69667,0 -1.4191,0.251224 -1.94726,0.720703 l -0.0273,0.02539 -0.0273,0.02539 c -0.52873,0.528732 -0.77148,1.289725 -0.77148,2.001953 v 29.769531 c 0,1.79552 0.29436,3.427657 0.91601,4.865235 l 0.004,0.01172 0.006,0.01367 c 0.65085,1.416569 1.56962,2.587862 2.74023,3.435547 l 0.008,0.0059 0.008,0.0059 c 1.21912,0.853389 2.65468,1.292969 4.17187,1.292969 h 1.01563 c 0.71222,0 1.47322,-0.242752 2.00195,-0.771485 l 0.0254,-0.02734 0.0254,-0.02734 c 0.46948,-0.528163 0.72266,-1.25059 0.72266,-1.947266 0,-0.682466 -0.191,-1.398524 -0.66602,-1.941406 -0.45074,-0.515132 -1.1799,-0.832031 -1.85547,-0.832031 h -1.26953 c -0.64953,0 -1.04455,-0.204943 -1.53906,-0.910156 -0.48401,-0.770652 -0.76758,-1.795663 -0.76758,-3.173829 v -29.769531 c 0,-0.712228 -0.24275,-1.473221 -0.77148,-2.001953 -0.52874,-0.528732 -1.28973,-0.771484 -2.00196,-0.771484 z m -22.30078,11.5820309 c -2.89984,0 -5.57402,0.6809748 -7.93555,2.0449219 -2.31911,1.3252112 -4.18687,3.1933819 -5.54296,5.5390625 v 0.00195 l -0.002,0.00391 c -1.33228,2.33148783 -1.99414,4.9879358 -1.99414,7.8847656 0,2.8653373 0.66329,5.5179431 1.99024,7.8769531 l 0.006,0.0098 0.006,0.0098 c 1.35584,2.308596 3.21484,4.169548 5.52343,5.52539 l 0.0117,0.0059 0.01,0.0059 c 2.36143,1.328307 5.0309,1.988281 7.92773,1.988281 2.89683,0 5.55328,-0.659908 7.88477,-1.992187 l 0.006,-0.0039 0.006,-0.0039 c 2.30947,-1.356358 4.15597,-3.220652 5.47851,-5.533203 1.36461,-2.3604 2.04883,-5.0180606 2.04883,-7.8886721 0,-2.89891 -0.68171,-5.55960265 -2.04883,-7.8906249 -1.32192,-2.3450397 -3.17195,-4.2129256 -5.48828,-5.5371094 -2.33065,-1.3664991 -4.98846,-2.046875 -7.88672,-2.046875 z m 0,5.34375 c 1.93519,0 3.58111,0.4503649 5.03711,1.3417968 l 0.0117,0.00781 0.0137,0.00586 c 1.50584,0.8733844 2.64883,2.04626905 3.49414,3.5859375 l 0.006,0.011719 0.008,0.013672 c 0.86782,1.4962338 1.30469,3.1714829 1.30469,5.1132813 0,1.9786626 -0.43947,3.690766 -1.31055,5.2226565 l -0.002,0.0039 -0.002,0.0039 c -0.8442,1.507494 -1.99202,2.688785 -3.50781,3.599609 -5.2e-4,3.08e-4 -0.001,-3.06e-4 -0.002,0 -1.45701,0.861931 -3.10967,1.298828 -5.05078,1.298828 -1.90256,0 -3.55869,-0.435186 -5.05664,-1.302734 -1.51584,-0.911852 -2.68465,-2.09674 -3.5625,-3.609375 -4.7e-4,-8.12e-4 -0.001,-0.0011 -0.002,-0.002 -0.86992,-1.5329311 -1.30469,-3.2254842 -1.30469,-5.1640623 0,-1.9786618 0.43869,-3.6709572 1.30469,-5.1640625 l 0.002,-0.00586 0.002,-0.00391 c 0.87988,-1.54735908 2.04573,-2.7263636 3.55469,-3.6015625 l 0.008,-0.00391 0.008,-0.00391 c 1.49787,-0.8987243 3.14875,-1.3476562 5.04687,-1.3476562 z m -34.49414,-5.34375 c -2.90048,0 -5.57363,0.6803672 -7.93555,2.0449219 -4.5e-4,2.614e-4 -0.001,-2.615e-4 -0.002,0 -7.4e-4,4.272e-4 -10e-4,0.00153 -0.002,0.00195 -2.31737,1.3250812 -4.18175,3.1927071 -5.53711,5.5371094 l -0.002,0.00195 -0.002,0.00391 c -1.33228,2.33148783 -1.99219,4.9879358 -1.99219,7.8847656 0,2.8653373 0.66134,5.5179432 1.98829,7.8769532 l 0.006,0.0098 0.006,0.0098 c 1.35585,2.308596 3.2168,4.169548 5.5254,5.52539 l 0.01,0.0059 0.01,0.0059 c 2.36143,1.328307 5.0309,1.988281 7.92773,1.988281 2.89683,0 5.55328,-0.659908 7.88477,-1.992187 l 0.008,-0.0039 0.006,-0.0039 c 2.30982,-1.356562 4.15593,-3.22017 5.47851,-5.533203 l 0.002,-0.002 c 1.36375,-2.359846 2.04492,-5.0170091 2.04492,-7.8867192 0,-2.8966974 -0.6799,-5.55502074 -2.04492,-7.8847656 -1.32262,-2.3487955 -3.17461,-4.2194772 -5.49414,-5.5449218 -2.32975,-1.3650226 -4.98807,-2.0449219 -7.88477,-2.0449219 z m 0,5.34375 c 1.93519,0 3.58111,0.4503649 5.03711,1.3417968 l 0.0137,0.00781 0.0117,0.00586 c 1.50584,0.8733844 2.64883,2.04626905 3.49414,3.5859375 l 0.008,0.011719 0.008,0.013672 c 0.86781,1.4962338 1.30273,3.1714829 1.30273,5.1132813 0,1.9786626 -0.43752,3.690766 -1.30859,5.2226565 l -0.002,0.0039 -0.002,0.0039 c -0.84419,1.507494 -1.99397,2.688785 -3.50976,3.599609 -5.2e-4,3.08e-4 -0.001,-3.06e-4 -0.002,0 -1.45701,0.86193 -3.10967,1.298828 -5.05078,1.298828 -1.90094,0 -3.55579,-0.434703 -5.05273,-1.300781 -1.51493,-0.91079 -2.6846,-2.09501 -3.5625,-3.605469 -0.87281,-1.5349411 -1.31055,-3.2300751 -1.31055,-5.1718743 0,-1.9786618 0.43869,-3.6709572 1.30469,-5.1640625 l 0.002,-0.00586 0.004,-0.00391 c 0.87987,-1.54735908 2.04377,-2.7263636 3.55273,-3.6015625 l 0.008,-0.00391 0.01,-0.00391 c 1.49787,-0.8987243 3.1468,-1.3476562 5.04492,-1.3476562 z m -34.54297,-5.34375 c -2.8339,0 -5.45666,0.6646888 -7.7832,1.9941406 -2.310461,1.3202641 -4.174708,3.1454763 -5.533204,5.421875 l -0.002,0.00391 -0.002,0.00195 C 95.040903,0.47734985 94.343814,3.0746237 94.271484,5.9316406 V 5.9472656 30.5 c 0,0.696676 0.26312,1.440854 0.773438,1.951172 0.517586,0.517586 1.271272,0.824219 2,0.824219 0.729203,0 1.505296,-0.305123 2.017578,-0.861329 C 99.55369,31.904853 99.820312,31.183314 99.820312,30.5 V 18.052734 c 0.799278,0.723511 1.682408,1.372917 2.673828,1.91211 l 0.004,0.002 0.004,0.002 c 2.15391,1.151225 4.57557,1.722656 7.19336,1.722656 2.89683,0 5.55328,-0.659908 7.88477,-1.992187 l 0.002,-0.002 0.002,-0.002 c 2.34405,-1.355153 4.21207,-3.22023 5.53711,-5.537109 1.36461,-2.3604 2.04688,-5.0180603 2.04688,-7.8886718 0,-2.8982615 -0.68038,-5.55802385 -2.04688,-7.8886718 -1.32282,-2.3471116 -3.19195,-4.2162349 -5.53906,-5.5390625 -2.33065,-1.3664991 -4.98846,-2.046875 -7.88672,-2.046875 z m 0,5.34375 c 1.93519,0 3.58111,0.4503649 5.03711,1.3417968 l 0.0117,0.00781 0.0137,0.00586 c 1.50897,0.8751989 2.67287,2.05420342 3.55274,3.6015625 l 0.004,0.00391 0.002,0.00586 c 0.866,1.4931053 1.30468,3.1854007 1.30468,5.1640625 0,1.9417992 -0.43773,3.6369332 -1.31054,5.1718743 -0.87838,1.511266 -2.04639,2.696438 -3.5625,3.607422 -5.2e-4,3.08e-4 -10e-4,-3.06e-4 -0.002,0 -1.45701,0.861931 -3.10967,1.298828 -5.05078,1.298828 -1.90255,0 -3.55869,-0.435186 -5.05664,-1.302734 -1.51293,-0.910105 -2.67936,-2.093076 -3.55664,-3.601563 -0.83842,-1.5330325 -1.261717,-3.2316185 -1.261718,-5.1738273 0,-1.981832 0.423428,-3.6806987 1.257818,-5.1738281 l 0.002,-0.00195 c 0.8797,-1.54614132 2.04457,-2.7248768 3.55273,-3.5996094 l 0.008,-0.00391 0.008,-0.00391 c 1.49787,-0.8987243 3.14875,-1.3476562 5.04687,-1.3476562 z m 144.37305,-5.34375 c -2.86534,0 -5.51794,0.6613378 -7.87695,1.9882812 l -0.004,0.00391 -0.004,0.00195 c -2.31479,1.3227376 -4.1798,3.169382 -5.53711,5.4804688 -1.37299,2.33780757 -2.05273,5.0349287 -2.05273,7.9999999 0,2.9283823 0.66045,5.6015862 1.99414,7.9355472 1.32415,2.317265 3.17688,4.16999 5.49414,5.494141 2.33644,1.335106 5.02634,1.992187 7.98633,1.992187 2.61201,0 4.98682,-0.549982 7.05078,-1.675781 l 0.008,-0.0039 0.008,-0.0039 c 0.96816,-0.54569 1.8281,-1.212637 2.60546,-1.958984 -0.18556,1.264891 -0.4959,2.460587 -1.07031,3.527344 l -0.002,0.0039 -0.002,0.0059 c -0.85309,1.614775 -1.98867,2.834178 -3.45899,3.734375 l -0.004,0.002 -0.006,0.0039 c -1.42048,0.8878 -3.02767,1.333984 -4.92579,1.333984 -2.04107,0 -3.74153,-0.389023 -5.16211,-1.128906 l -0.01,-0.0059 -0.01,-0.0039 c -1.49205,-0.746027 -2.68193,-1.671598 -3.61328,-2.783203 l 0.0957,0.13086 c -0.41973,-0.659573 -1.17553,-1.111522 -1.93555,-1.222657 -0.72426,-0.110147 -1.52367,0.101245 -2.10547,0.554688 -0.57026,0.420053 -1.00586,1.164707 -1.00586,1.898437 0,0.674074 0.26866,1.330991 0.67773,1.84375 9.1e-4,0.0011 10e-4,0.0028 0.002,0.0039 1.39708,1.763134 3.1651,3.212335 5.26367,4.333984 l 0.004,0.002 0.004,0.0039 c 2.21179,1.162125 4.82837,1.716797 7.79492,1.716797 2.87121,0 5.50593,-0.701472 7.80469,-2.107422 l 0.002,-0.002 c 2.2838,-1.363478 4.11035,-3.267862 5.42774,-5.646484 1.32582,-2.393845 1.98633,-5.093102 1.98633,-8.021485 v -9.4882812 -0.46875 -1.25 h -0.14649 c -0.1662,-2.4528659 -0.70988,-4.74522682 -1.84765,-6.7363281 -1.32369,-2.3164553 -3.17606,-4.1681296 -5.49219,-5.4921875 -2.30547,-1.337288 -4.97978,-1.9960937 -7.9375,-1.9960937 z m 0,5.34375 c 1.97866,0 3.64933,0.4401401 5.10351,1.3007812 l 0.0137,0.00586 0.0137,0.00781 c 1.49783,0.8387863 2.63291,1.98874335 3.47656,3.52539063 l 0.002,0.003906 0.004,0.003906 c 0.8337,1.48875527 1.26172,3.22477357 1.26172,5.28320307 0,2.0201792 -0.42655,3.7572082 -1.26563,5.2871102 -6.9e-4,0.0013 -10e-4,0.0026 -0.002,0.0039 -0.84261,1.500681 -1.98559,2.656888 -3.49219,3.53125 -8.2e-4,4.76e-4 -0.001,0.0015 -0.002,0.002 -1.45419,0.829142 -3.13151,1.253906 -5.11328,1.253906 -1.98281,0 -3.68017,-0.426523 -5.17383,-1.261718 -1.50566,-0.875741 -2.64675,-2.032425 -3.48828,-3.535157 -0.83713,-1.528597 -1.26367,-3.2634341 -1.26367,-5.2812502 0,-2.0584295 0.42997,-3.7944478 1.26367,-5.28320307 l 0.002,-0.003906 0.002,-0.003906 c 0.84365,-1.53664728 1.98068,-2.68660433 3.47851,-3.52539063 l 0.008,-0.00391 0.008,-0.00586 c 1.4931,-0.866001 3.1854,-1.3046875 5.16406,-1.3046875 z" />
      </g>
    </g>
  </g>
</svg>
