<?xml version="1.0" encoding="UTF-8" standalone="no"?>
<!-- Created with Inkscape (http://www.inkscape.org/) -->

<svg
   width="1200mm"
   height="628mm"
   viewBox="0 0 1200 628"
   version="1.1"
   id="svg5"
   inkscape:version="1.1.1 (3bf5ae0, 2021-09-20)"
   sodipodi:docname="banner.svg"
   inkscape:export-filename="D:\Source\GitHubClones\poolygotchi\docs\img\banner.png"
   inkscape:export-xdpi="25.4"
   inkscape:export-ydpi="25.4"
   xmlns:inkscape="http://www.inkscape.org/namespaces/inkscape"
   xmlns:sodipodi="http://sodipodi.sourceforge.net/DTD/sodipodi-0.dtd"
   xmlns:xlink="http://www.w3.org/1999/xlink"
   xmlns="http://www.w3.org/2000/svg"
   xmlns:svg="http://www.w3.org/2000/svg">
  <sodipodi:namedview
     id="namedview7"
     pagecolor="#1e1e1e"
     bordercolor="#111111"
     borderopacity="1"
     inkscape:pageshadow="0"
     inkscape:pageopacity="0"
     inkscape:pagecheckerboard="1"
     inkscape:document-units="mm"
     showgrid="false"
     inkscape:zoom="0.1493681"
     inkscape:cx="2313.0775"
     inkscape:cy="1523.0829"
     inkscape:window-width="1862"
     inkscape:window-height="1016"
     inkscape:window-x="0"
     inkscape:window-y="0"
     inkscape:window-maximized="1"
     inkscape:current-layer="layer5"
     fit-margin-top="0"
     fit-margin-left="0"
     fit-margin-right="0"
     fit-margin-bottom="0"
     lock-margins="true" />
  <defs
     id="defs2">
    <linearGradient
       inkscape:collect="always"
       id="linearGradient7154">
      <stop
         style="stop-color:#512bc7;stop-opacity:1"
         offset="0"
         id="stop7150" />
      <stop
         style="stop-color:#2900c0;stop-opacity:1"
         offset="1"
         id="stop7152" />
    </linearGradient>
    <inkscape:path-effect
       effect="bspline"
       id="path-effect2064"
       is_visible="true"
       lpeversion="1"
       weight="33.333333"
       steps="2"
       helper_size="0"
       apply_no_weight="true"
       apply_with_weight="true"
       only_selected="false" />
    <inkscape:path-effect
       effect="bspline"
       id="path-effect1696"
       is_visible="true"
       lpeversion="1"
       weight="33.333333"
       steps="2"
       helper_size="0"
       apply_no_weight="true"
       apply_with_weight="true"
       only_selected="false" />
    <inkscape:path-effect
       effect="bspline"
       id="path-effect1659"
       is_visible="true"
       lpeversion="1"
       weight="33.333333"
       steps="2"
       helper_size="0"
       apply_no_weight="true"
       apply_with_weight="true"
       only_selected="false" />
    <linearGradient
       inkscape:collect="always"
       xlink:href="#linearGradient7154"
       id="linearGradient1124"
       x1="252.69713"
       y1="-489.35733"
       x2="818.27496"
       y2="488.99561"
       gradientUnits="userSpaceOnUse" />
    <linearGradient
       inkscape:collect="always"
       id="linearGradient23178">
      <stop
         style="stop-color:#ffffff;stop-opacity:0.42745098"
         offset="0"
         id="stop23174" />
      <stop
         style="stop-color:#ffffff;stop-opacity:0"
         offset="1"
         id="stop23176" />
    </linearGradient>
    <linearGradient
       inkscape:collect="always"
       xlink:href="#linearGradient7154"
       id="linearGradient22135"
       gradientUnits="userSpaceOnUse"
       gradientTransform="matrix(0.62204343,0,0,0.62204343,-79.789196,13.49814)"
       x1="112.15154"
       y1="115.78323"
       x2="110.57948"
       y2="91.923889" />
    <linearGradient
       inkscape:collect="always"
       xlink:href="#linearGradient9713"
       id="linearGradient22133"
       gradientUnits="userSpaceOnUse"
       gradientTransform="matrix(0.62204343,0,0,0.62204343,-79.789196,13.49814)"
       x1="132.27698"
       y1="95.058319"
       x2="107.13811"
       y2="103.57103" />
    <linearGradient
       inkscape:collect="always"
       id="linearGradient9713">
      <stop
         style="stop-color:#ffffff;stop-opacity:0.42745098"
         offset="0"
         id="stop9709" />
      <stop
         style="stop-color:#000000;stop-opacity:0"
         offset="1"
         id="stop9711" />
    </linearGradient>
    <linearGradient
       inkscape:collect="always"
       xlink:href="#linearGradient25468"
       id="linearGradient22111"
       gradientUnits="userSpaceOnUse"
       gradientTransform="matrix(1.1231981,0,0,1.1231981,-333.49607,85.06287)"
       x1="203.24779"
       y1="-29.847116"
       x2="514.10559"
       y2="67.199623" />
    <linearGradient
       inkscape:collect="always"
       id="linearGradient25468">
      <stop
         style="stop-color:#e85d75;stop-opacity:1"
         offset="0"
         id="stop25464" />
      <stop
         style="stop-color:#f5fbef;stop-opacity:1"
         offset="0.48243436"
         id="stop26108" />
      <stop
         style="stop-color:#40f99b;stop-opacity:1"
         offset="1"
         id="stop25466" />
    </linearGradient>
    <linearGradient
       inkscape:collect="always"
       xlink:href="#linearGradient19808"
       id="linearGradient22109"
       gradientUnits="userSpaceOnUse"
       gradientTransform="matrix(0.31696109,0,0,0.31696109,-277.08993,48.60685)"
       x1="775.99225"
       y1="148.9429"
       x2="852.70105"
       y2="127.94835" />
    <linearGradient
       inkscape:collect="always"
       id="linearGradient19808">
      <stop
         style="stop-color:#2c2c2c;stop-opacity:0.13089924"
         offset="0"
         id="stop19804" />
      <stop
         style="stop-color:#ffffff;stop-opacity:0;"
         offset="1"
         id="stop19806" />
    </linearGradient>
    <linearGradient
       inkscape:collect="always"
       xlink:href="#linearGradient23178"
       id="linearGradient23152"
       gradientUnits="userSpaceOnUse"
       gradientTransform="matrix(4.2451582,0,0,4.2451582,-905.3991,158.79844)"
       x1="308.42361"
       y1="-8.5084801"
       x2="295.50089"
       y2="0.010168788" />
  </defs>
  <g
     inkscape:groupmode="layer"
     id="layer2"
     inkscape:label="bg"
     transform="translate(202.50168,257.7294)"
     sodipodi:insensitive="true">
    <rect
       style="display:inline;opacity:1;fill:url(#linearGradient1124);fill-opacity:1;stroke:none;stroke-width:3;stroke-linejoin:round;paint-order:stroke markers fill"
       id="rect1016"
       width="1200"
       height="628"
       x="-128.23019"
       y="-289.51651"
       transform="translate(-74.271484,31.787108)" />
  </g>
  <g
     inkscape:groupmode="layer"
     id="layer3"
     inkscape:label="pooly"
     transform="translate(128.23019,289.51651)" />
  <g
     inkscape:groupmode="layer"
     id="layer4"
     inkscape:label="eyes"
     transform="translate(128.23019,289.51651)" />
  <g
     inkscape:groupmode="layer"
     id="layer6"
     inkscape:label="pooly-highlight"
     transform="translate(128.23019,289.51651)" />
  <g
     inkscape:label="egg"
     inkscape:groupmode="layer"
     id="layer1"
     style="display:inline"
     transform="translate(128.23019,289.51651)" />
  <g
     inkscape:groupmode="layer"
     id="layer5"
     inkscape:label="egg-highlight"
     style="display:inline"
     transform="translate(128.23019,289.51651)">
    <g
       id="g24055"
       transform="matrix(2.4647878,0,0,2.4647878,35.212141,-186.75667)">
      <g
         inkscape:label="Layer 1"
         id="layer1-1"
         transform="translate(93.94256,-43.04745)"
         style="display:inline">
        <circle
           style="display:inline;fill:url(#linearGradient22135);fill-opacity:1;stroke:none;stroke-width:0.0837637;stroke-linejoin:round;stroke-miterlimit:4;stroke-dasharray:none"
           id="circle22069"
           cx="-9.5732784"
           cy="83.938255"
           r="12.732846" />
        <ellipse
           style="display:inline;fill:#000000;fill-opacity:1;stroke:none;stroke-width:0.0622044;stroke-linejoin:round;stroke-miterlimit:4;stroke-dasharray:none"
           id="ellipse22071"
           cx="-15.276915"
           cy="81.952522"
           rx="3.3028572"
           ry="3.7823038" />
        <ellipse
           style="display:inline;fill:#000000;fill-opacity:1;stroke:none;stroke-width:0.0622044;stroke-linejoin:round;stroke-miterlimit:4;stroke-dasharray:none"
           id="ellipse22073"
           cx="-3.7502649"
           cy="81.952522"
           rx="3.3028572"
           ry="3.7823038" />
        <ellipse
           style="display:inline;fill:#ffffff;fill-opacity:1;stroke:none;stroke-width:0.0123861;stroke-linejoin:round;stroke-miterlimit:4;stroke-dasharray:none"
           id="ellipse22075"
           cx="-14.854216"
           cy="80.14782"
           rx="0.65766293"
           ry="0.75312984" />
        <ellipse
           style="display:inline;fill:#ffffff;fill-opacity:1;stroke:none;stroke-width:0.0156715;stroke-linejoin:round;stroke-miterlimit:4;stroke-dasharray:none"
           id="ellipse22077"
           cx="-14.095106"
           cy="80.946877"
           rx="0.83210957"
           ry="0.95289952" />
        <ellipse
           style="display:inline;fill:#ffffff;fill-opacity:1;stroke:none;stroke-width:0.0123861;stroke-linejoin:round;stroke-miterlimit:4;stroke-dasharray:none"
           id="ellipse22079"
           cx="-3.3075693"
           cy="80.14782"
           rx="0.65766293"
           ry="0.75312984" />
        <ellipse
           style="display:inline;fill:#ffffff;fill-opacity:1;stroke:none;stroke-width:0.0156715;stroke-linejoin:round;stroke-miterlimit:4;stroke-dasharray:none"
           id="ellipse22081"
           cx="-2.5484216"
           cy="80.946877"
           rx="0.83210957"
           ry="0.95289952" />
        <circle
           style="display:inline;fill:url(#linearGradient22133);fill-opacity:1;stroke:none;stroke-width:0.0837637;stroke-linejoin:round;stroke-miterlimit:4;stroke-dasharray:none"
           id="circle22083"
           cx="-9.5732784"
           cy="83.938255"
           r="12.732846" />
        <path
           id="path22105"
           style="display:inline;fill:url(#linearGradient22111);fill-opacity:1;stroke-width:0.622044;stroke-linejoin:round"
           d="m -11.642209,63.7219 c -7.890505,1.21502 -13.443603,9.4847 -14.324525,18.2127 l 3.506797,-4.78339 4.467552,3.2764 2.740796,-3.73849 4.381754,3.2135 3.402264,-4.64076 5.11208,3.74893 3.68551,-5.02752 4.510485,3.30818 1.16384,-1.58751 C 3.331224,68.17773 -4.107153,62.56161 -11.642209,63.7219 Z m -10.776877,19.39505 -4.223839,4.22288 c -0.472141,1.86119 -0.726804,3.77653 -0.726804,5.68194 0,10.65049 7.918321,19.28443 17.686178,19.28443 9.767844,0 17.686475,-8.63394 17.686475,-19.28443 0,-2.31448 -0.37453,-4.64383 -1.06014,-6.8726 l -1.41244,1.41214 -3.954479,-3.9548 -4.407726,4.40675 -4.481975,-4.48196 -4.068918,4.06762 -3.841641,-3.84165 -3.277819,3.27654 z M 139.78102,62.05718 c -0.9703,0 -1.8974,0.35542 -2.56725,1.02526 l -0.0176,0.015 -0.0157,0.0183 c -0.61577,0.67734 -0.92465,1.58503 -0.92465,2.53598 v 9.37156 h -3.35863 c -0.87802,0 -1.72244,0.34123 -2.34086,0.94844 -0.63463,0.58308 -0.98448,1.43433 -0.98448,2.3123 0,0.85873 0.35027,1.69168 0.95864,2.30005 l 0.0176,0.0204 0.0183,0.0157 c 0.62793,0.56513 1.46495,0.8553 2.33066,0.8553 h 3.35864 v 16.85984 c 0,2.63616 0.57055,5.03877 1.72419,7.15378 l 0.003,0.005 0.003,0.005 c 1.14625,2.0537 2.7241,3.7051 4.69257,4.90539 l 0.005,0.003 0.003,0.003 c 2.02815,1.20722 4.3393,1.80918 6.85598,1.80918 h 1.40328 c 0.98476,0 1.91553,-0.29587 2.6366,-0.89677 l 0.0178,-0.0157 0.0183,-0.0157 c 0.72134,-0.66122 1.12046,-1.60819 1.12046,-2.59785 0,-0.95095 -0.30956,-1.85863 -0.92533,-2.53598 -0.62177,-0.68394 -1.52759,-1.05585 -2.46663,-1.05585 h -1.80442 c -1.86661,0 -3.25975,-0.58878 -4.41927,-1.8221 -1.16434,-1.28252 -1.74527,-2.86755 -1.74527,-4.94414 V 81.47576 h 6.56499 c 0.86571,0 1.70273,-0.29017 2.33066,-0.8553 l 0.0183,-0.0157 0.0204,-0.0204 c 0.60837,-0.60838 0.95592,-1.44132 0.95592,-2.30005 0,-0.87797 -0.34986,-1.72922 -0.98449,-2.31231 -0.61828,-0.60612 -1.46364,-0.94843 -2.34085,-0.94843 h -6.56498 v -9.37156 c 0,-0.9703 -0.35541,-1.89945 -1.02527,-2.56929 -0.66984,-0.66986 -1.59967,-1.02527 -2.56997,-1.02527 z m -30.00846,11.29537 c -3.58467,0 -6.81095,0.84814 -9.60273,2.55161 -2.775396,1.69347 -4.980166,4.04203 -6.571096,6.98991 l -0.003,0.003 v 0.003 c -1.55515,2.92181 -2.32046,6.30279 -2.32046,10.08883 0,3.75124 0.81451,7.13978 2.4612,10.10381 l 0.003,0.005 0.003,0.005 c 1.68494,2.94866 4.00543,5.29113 6.912406,6.97904 l 0.008,0.005 0.008,0.005 c 2.96403,1.64668 6.35256,2.46188 10.10381,2.46188 2.22016,0 4.51699,-0.42546 6.8791,-1.25916 l 0.008,-0.003 0.008,-0.003 c 2.35453,-0.87718 4.32826,-1.97202 5.9055,-3.30969 0.70746,-0.59093 1.11996,-1.49117 1.06878,-2.39728 -0.0142,-0.9129 -0.46082,-1.77178 -1.1694,-2.42584 l -0.0251,-0.0232 -0.0258,-0.0232 c -0.62667,-0.50134 -1.44255,-0.71957 -2.25654,-0.67036 -0.82141,0.009 -1.62254,0.28915 -2.26131,0.81178 l -0.0105,0.008 -0.0105,0.0105 c -0.85455,0.73802 -2.05402,1.39859 -3.61087,1.9472 -0.001,6.9e-4 -0.004,-6.9e-4 -0.005,0 -1.50874,0.50237 -3.00198,0.75332 -4.49474,0.75332 -2.5254,0 -4.69525,-0.56225 -6.58335,-1.67048 -1.90239,-1.11663 -3.3949,-2.62296 -4.517156,-4.57156 l -0.003,-0.005 c -0.67541,-1.22227 -1.06245,-2.60878 -1.31355,-4.07796 h 25.784036 c 0.89793,0 1.75722,-0.27992 2.39729,-0.85599 l 0.0211,-0.0157 0.0176,-0.0204 c 0.63163,-0.63163 0.95592,-1.51484 0.95592,-2.43331 0,-0.9065 -0.18127,-1.72546 -0.27263,-2.58765 l 0.47048,-0.33927 h -0.50583 c -0.29429,-2.43787 -0.82743,-4.75821 -1.87106,-6.81179 -1.45692,-2.86685 -3.55554,-5.13578 -6.2468,-6.74312 -2.66324,-1.66176 -5.802,-2.48498 -9.33552,-2.48498 z m 0,6.58606 c 2.34248,0 4.27313,0.53421 5.87898,1.57802 l 0.005,0.003 0.003,0.004 c 1.67198,1.06029 2.94099,2.50465 3.84952,4.40431 0.50901,1.06426 0.83292,2.23328 1.04566,3.46605 H 98.416934 c 0.23995,-1.14175 0.5974,-2.20289 1.07693,-3.1839 l 0.003,-0.003 c 3.4e-4,-7e-4 -3.5e-4,-0.003 0,-0.003 0.996796,-1.99146 2.355346,-3.50637 4.116716,-4.61235 1.74967,-1.09862 3.77515,-1.6528 6.15909,-1.6528 z M 61.851014,58.04788 c -0.9703,0 -1.89945,0.35339 -2.56929,1.02323 -0.64327,0.64325 -0.95592,1.55172 -0.95592,2.50267 v 47.11955 c 0,0.95096 0.30889,1.85932 0.92465,2.53666 l 0.0313,0.0333 0.0361,0.0307 c 0.67734,0.61577 1.58229,0.92533 2.53325,0.92533 0.95095,0 1.8594,-0.31267 2.50267,-0.95592 0.66984,-0.66986 1.02527,-1.59969 1.02527,-2.56998 V 98.65625 l 3.93451,-3.55649 13.09258,16.08884 -0.0156,-0.0231 c 0.56611,0.73595 1.38848,1.22482 2.28441,1.30062 0.90344,0.11538 1.82006,-0.20249 2.54414,-0.81517 0.71604,-0.60589 1.21426,-1.39496 1.28228,-2.27899 v -0.003 -0.005 c 0.0626,-0.87612 -0.25174,-1.74427 -0.82744,-2.43604 L 74.363104,90.53856 87.013084,79.1083 c 0.68596,-0.57163 1.12547,-1.39502 1.13881,-2.26333 0.0503,-0.88569 -0.29022,-1.76027 -0.90969,-2.43604 -0.61131,-0.66689 -1.4272,-1.09194 -2.29462,-1.1055 -0.86348,-0.0526 -1.70921,0.29952 -2.37485,0.90969 L 65.379744,89.74718 V 61.57333 c 0,-0.95241 -0.36704,-1.85586 -1.03818,-2.4877 -0.63185,-0.67116 -1.538,-1.03818 -2.49042,-1.03818 z m -26.66788,15.30494 c -3.58475,0 -6.81241,0.87174 -9.60273,2.61891 -0.001,7e-4 -0.001,0.003 -0.003,0.003 -2.77392,1.69333 -4.9774,4.03974 -6.56771,6.98654 -1.59785,2.96071 -2.38981,6.32261 -2.38981,10.02696 0,3.66572 0.82006,7.0097 2.46459,9.96986 l 0.002,0.005 0.003,0.005 c 1.68189,2.9433 3.97138,5.3034 6.8281,7.03616 l 0.007,0.005 0.008,0.005 c 2.91993,1.69544 6.2517,2.5387 9.92159,2.5387 5.05757,0 9.39494,-1.58427 12.82742,-4.73337 0.67312,-0.61193 1.01518,-1.54698 0.8995,-2.44353 -0.0747,-0.86829 -0.49698,-1.67844 -1.16397,-2.28985 l -0.0211,-0.0176 -0.0232,-0.0183 c -0.65143,-0.533 -1.47595,-0.81891 -2.3021,-0.75536 -0.80687,0.0621 -1.57111,0.41396 -2.22798,0.96137 l -0.0105,0.0105 -0.0105,0.008 c -1.01208,0.89062 -2.17902,1.55569 -3.53066,2.00702 -1.31402,0.40917 -2.78905,0.6221 -4.43762,0.6221 -2.43118,0 -4.53333,-0.55823 -6.37802,-1.66505 -1.85758,-1.11455 -3.27912,-2.61745 -4.31456,-4.56408 -1.03218,-1.94048 -1.55422,-4.14964 -1.55422,-6.68601 0,-2.59301 0.48588,-4.83888 1.43592,-6.78118 3.5e-4,-7e-4 -3.4e-4,-0.003 0,-0.003 0.9959,-1.94492 2.33373,-3.44042 4.05009,-4.54572 l 0.003,-0.003 c 0.001,-0.001 0.003,-0.001 0.005,-0.003 1.75072,-1.09721 3.74979,-1.64737 6.08294,-1.64737 3.67435,0 6.59571,1.32104 9.01667,4.07593 l -0.0157,-0.0211 c 0.5543,0.66516 1.26755,1.14792 2.07366,1.33394 l 0.0414,0.008 0.0408,0.008 c 0.84024,0.11999 1.70288,-0.0863 2.38504,-0.58063 0.75874,-0.54333 1.32723,-1.26134 1.52363,-2.1124 v -0.008 l 0.003,-0.008 c 0.19649,-0.91699 -0.12367,-1.89022 -0.76623,-2.59785 -1.81627,-2.22568 -3.95694,-3.92525 -6.40318,-5.05429 -2.40758,-1.13159 -5.05443,-1.69631 -7.89892,-1.69631 z m -89.624368,-2.7e-4 c -3.627253,0 -6.95403,0.84557 -9.913435,2.53665 l -0.0028,0.003 h -0.0054 c -2.904977,1.68669 -5.242633,4.02703 -6.971564,6.97088 v 0.003 l -0.0028,0.003 c -1.692288,2.9145 -2.558867,6.21546 -2.605327,9.83932 v 0.005 31.5522 c 0,0.98476 0.303749,1.91507 0.95864,2.56997 0.680419,0.68042 1.630852,1.02527 2.633882,1.02527 0.951595,0 1.855237,-0.36818 2.487027,-1.03819 0.683247,-0.64312 1.040907,-1.57174 1.040907,-2.55705 v -17.08828 c 1.265462,1.29987 2.66845,2.47834 4.360798,3.3872 l 0.01013,0.005 0.0082,0.005 c 2.595,1.3211 5.480514,1.97847 8.603289,1.97847 3.58468,0 6.849251,-0.845 9.723747,-2.54141 l 0.0047,-0.003 0.0054,-0.005 c 2.85504,-1.73174 5.123434,-4.09336 6.760799,-7.03616 1.692205,-2.96135 2.53598,-6.31017 2.53598,-9.98005 0,-3.71255 -0.865528,-7.08541 -2.602611,-10.04738 l -0.0028,-0.003 c -1.685208,-2.94784 -4.024416,-5.29106 -6.97156,-6.97701 -7e-4,-3.4e-4 -0.0014,3.5e-4 -0.0028,0 -2.963867,-1.74016 -6.336305,-2.60804 -10.052129,-2.60804 z m 0,6.65337 h 6.79e-4 c 2.425242,1.1e-4 4.54438,0.57451 6.436493,1.72623 l 0.0075,0.005 0.0054,0.003 c 1.904056,1.11759 3.369915,2.62506 4.447824,4.5736 l 0.0054,0.005 0.0028,0.008 c 1.112705,1.93692 1.675241,4.13546 1.675241,6.66086 0,2.47834 -0.559609,4.68017 -1.677963,6.66834 l -0.0028,0.003 -0.0021,0.003 c -1.077909,1.94852 -2.544447,3.45395 -4.448503,4.57156 -1.893484,1.11139 -4.018208,1.67048 -6.449407,1.67048 -2.383954,0 -4.490006,-0.55751 -6.386178,-1.67048 -1.901326,-1.116 -3.364905,-2.61895 -4.442382,-4.5634 v -0.003 c -1.077079,-1.98931 -1.618812,-4.19549 -1.618812,-6.67854 0,-2.53089 0.540982,-4.73454 1.613371,-6.67309 1.077913,-1.94853 2.543775,-3.45669 4.447823,-4.57428 l 0.0082,-0.003 0.0054,-0.005 c 1.894817,-1.15337 3.99401,-1.72681 6.371902,-1.72691 z m 289.503094,45.36144 c -0.44786,0.006 -0.88722,0.0826 -1.31007,0.24113 -1.12979,0.42369 -1.9646,1.3724 -2.51482,2.54628 l -0.005,0.0104 -15.70988,34.62558 -16.46002,-34.7235 c -0.53127,-1.13843 -1.45292,-2.03423 -2.60168,-2.40585 -1.13249,-0.41898 -2.40344,-0.31759 -3.54132,0.21343 -1.14472,0.53422 -2.06495,1.42061 -2.50003,2.55178 -0.44001,1.14408 -0.32124,2.43666 0.21714,3.59025 l 0.005,0.006 20.02161,41.47997 -8.76772,19.33152 c -0.54888,1.20762 -0.73011,2.4916 -0.27622,3.63827 0.45388,1.14669 1.4496,1.96167 2.67834,2.50376 l 0.0251,0.0104 0.0203,0.006 c 0.71998,0.28802 1.42634,0.46101 2.1342,0.46104 1.68488,-3e-5 3.11974,-1.20974 3.85172,-2.87701 l 0.005,-0.0104 29.42311,-64.65211 h 0.005 c 0.54779,-1.20526 0.73004,-2.48343 0.26881,-3.62441 -0.46004,-1.13788 -1.47122,-1.9257 -2.69961,-2.43353 -0.74973,-0.31718 -1.51892,-0.50044 -2.26539,-0.48964 z m -61.10157,-21.14324 c -1.31854,0 -2.58203,0.4802 -3.4923,1.39044 -0.87415,0.87413 -1.29898,2.10863 -1.29898,3.40086 v 51.77028 c 0,3.23692 0.54069,6.15095 1.65559,8.70858 l 0.006,0.0142 0.005,0.0142 c 1.17236,2.54016 2.80992,4.59049 4.89197,6.06811 l 0.006,0.008 0.0103,0.006 c 2.15248,1.47985 4.63009,2.23122 7.29786,2.23122 h 1.18073 c 1.43441,0 2.75588,-0.37861 3.76392,-1.21861 l 0.005,-0.003 0.006,-0.003 c 1.04715,-0.88604 1.65562,-2.1942 1.65562,-3.56529 0,-1.25295 -0.37143,-2.43051 -1.15212,-3.31401 -0.77675,-0.93158 -1.96431,-1.47731 -3.18834,-1.47731 h -2.26998 c -1.18056,0 -2.04175,-0.48162 -2.95371,-1.83948 -0.85428,-1.3622 -1.33781,-3.20841 -1.33781,-5.62925 v -51.77305 c 0,-1.29424 -0.49505,-2.52191 -1.40707,-3.38055 -0.85955,-0.91205 -2.08995,-1.41077 -3.3842,-1.41077 z M 10.299384,125.02148 c -4.92905,0 -9.449776,1.14902 -13.471259,3.44702 l -0.0026,0.003 h -0.0026 c -3.947538,2.29212 -7.124178,5.4723 -9.473622,9.47267 l -0.0026,0.005 v 0.003 c -2.299622,3.96046 -3.480908,8.44608 -3.544053,13.37053 v 0.006 42.87597 c 0,1.33817 0.412756,2.60238 1.302683,3.49232 0.9246,0.92462 2.219864,1.3932 3.582844,1.3932 1.293114,0 2.5174,-0.50032 3.375941,-1.41077 0.928446,-0.87392 1.414473,-2.13583 1.414473,-3.47475 v -23.22111 c 1.71975,1.76664 3.625895,3.36767 5.925827,4.60283 l 0.01424,0.006 0.01424,0.006 c 3.526326,1.79522 7.443686,2.68854 11.687216,2.68854 4.87115,0 9.31016,-1.14825 13.21632,-3.45351 l 0.006,-0.003 0.008,-0.006 c 3.88332,-2.35549 6.9654,-5.56736 9.1909,-9.57152 2.29584,-4.02181 3.4424,-8.56865 3.4424,-13.55167 0,-5.05057 -1.18194,-9.63887 -3.54776,-13.66713 -2.2908,-4.00282 -5.472,-7.1844 -9.47635,-9.47361 -4.02594,-2.36203 -8.61036,-3.54125 -13.65699,-3.54125 z m 61.66697,0 c -5.04496,0 -9.6237,1.14599 -13.65048,3.44702 -4.01156,2.29234 -7.1979,5.4787 -9.49022,9.49024 -2.30253,4.02944 -3.44703,8.64169 -3.44703,13.74472 0,5.04498 1.14601,9.62647 3.44703,13.65326 2.29232,4.01158 5.47866,7.19514 9.49022,9.48745 4.02678,2.30103 8.60552,3.44614 13.65048,3.44614 5.04096,0 9.59358,-1.14436 13.56184,-3.44614 4.01016,-2.2915 7.19532,-5.47515 9.48746,-9.48465 2.36203,-4.02597 3.54123,-8.60945 3.54123,-13.65606 v -0.0104 -0.008 c -0.0629,-5.09873 -1.23767,-9.70236 -3.53757,-13.72719 -2.29232,-4.01154 -5.47958,-7.1979 -9.49112,-9.49022 -3.96826,-2.3018 -8.52088,-3.44702 -13.56184,-3.44702 z m 61.486846,0 c -5.04454,1e-4 -9.6258,1.14613 -13.6523,3.44702 -4.01157,2.29234 -7.19792,5.4787 -9.49022,9.49024 -2.30259,4.02944 -3.44704,8.64169 -3.44704,13.74472 0,5.04498 1.14598,9.62647 3.44704,13.65326 2.2923,4.01158 5.47865,7.19514 9.49022,9.48745 4.02677,2.30103 8.60829,3.44614 13.65324,3.44614 5.04213,0 9.59377,-1.14327 13.56272,-3.44614 4.00641,-2.28934 7.18841,-5.46932 9.48004,-9.47358 2.36584,-4.02825 3.54776,-8.61656 3.54776,-13.66713 v -0.0104 -0.008 c -0.0629,-5.09873 -1.23675,-9.70236 -3.53663,-13.72719 -2.29104,-4.00927 -5.47634,-7.19541 -9.48467,-9.48745 l -0.008,-0.003 c -3.96873,-2.3027 -8.52007,-3.44689 -13.56184,-3.447 z m 9.4e-4,9.04028 0.003,9.2e-4 c 3.30221,5.7e-4 6.18922,0.75568 8.76125,2.2654 2.58118,1.51502 4.57375,3.58861 6.04042,6.2963 l 0.005,0.003 0.005,0.006 c 1.45723,2.63426 2.19331,5.62972 2.19331,9.06891 0,3.4392 -0.73608,6.43374 -2.19331,9.06802 -1.46476,2.64782 -3.46036,4.69354 -6.04776,6.21224 -2.573,1.51025 -5.46126,2.26999 -8.76498,2.26999 -3.30376,0 -6.19472,-0.75974 -8.76774,-2.26999 -2.58516,-1.51739 -4.61055,-3.56431 -6.13557,-6.21224 l -0.005,-0.006 c -1.45475,-2.63264 -2.1896,-5.62529 -2.1896,-9.06152 0,-3.43627 0.73485,-6.4289 2.1896,-9.06156 v -0.003 c 0,-0.001 0.005,-9.8e-4 0.005,-0.003 1.52748,-2.71291 3.55295,-4.79057 6.13557,-6.30649 2.57207,-1.50967 5.46186,-2.26572 8.76402,-2.26628 z m -123.154756,9.2e-4 h 9e-4 c 3.29563,1.5e-4 6.17535,0.7807 8.74654,2.34577 l 0.0104,0.006 0.0104,0.003 c 2.58736,1.5187 4.57933,3.56716 6.04405,6.21501 l 0.003,0.008 0.006,0.0104 c 1.51204,2.63206 2.27275,5.61961 2.27275,9.05137 0,3.36777 -0.76047,6.35983 -2.28014,9.06154 l -0.003,0.003 v 0.003 c -1.46474,2.64782 -3.45762,4.69355 -6.04504,6.21223 -2.57299,1.51027 -5.46398,2.27003 -8.76769,2.27003 -3.23951,0 -6.1005,-0.7576 -8.677212,-2.27003 -2.583692,-1.51649 -4.573452,-3.55883 -6.037617,-6.20116 v -0.003 c -1.463634,-2.70324 -2.199782,-5.7012 -2.199782,-9.07538 0,-3.43922 0.735151,-6.43372 2.192402,-9.068 1.464761,-2.64785 3.457615,-4.69728 6.044997,-6.21596 l 0.01036,-0.003 0.01036,-0.006 c 2.574882,-1.56728 5.423702,-2.34652 8.654992,-2.34669 z m 61.66697,0 h 0.003 c 3.30219,5.7e-4 6.19193,0.75568 8.76407,2.2654 2.58115,1.51502 4.57096,3.58861 6.03761,6.2963 l 0.005,0.003 0.005,0.006 c 1.45724,2.63426 2.19327,5.62972 2.19327,9.06891 0,3.4392 -0.73603,6.43374 -2.19327,9.06802 -1.46476,2.64782 -3.45677,4.69354 -6.04415,6.21224 -2.57306,1.51025 -5.464,2.26999 -8.76772,2.26999 -3.3037,0 -6.19194,-0.75974 -8.76495,-2.26999 -2.58518,-1.51738 -4.61055,-3.56434 -6.13557,-6.21224 l -0.004,-0.006 c -1.45479,-2.63264 -2.19332,-5.62529 -2.19332,-9.06152 0,-3.43922 0.73884,-6.43466 2.19608,-9.06891 1.52741,-2.71202 3.55355,-4.79004 6.13555,-6.3056 2.5721,-1.50969 5.45914,-2.26572 8.76125,-2.26629 z" />
        <path
           id="path22107"
           style="display:inline;fill:url(#linearGradient22109);fill-opacity:1;stroke-width:0.622042;stroke-linejoin:round"
           d="m -9.528331,63.57026 c -0.0327,-2.8e-4 -0.06565,0.002 -0.09847,0.002 0.04624,-2.4e-4 0.09248,-8.3e-4 0.138676,-6.1e-4 -0.01342,-1.7e-4 -0.02683,-10e-4 -0.04025,-10e-4 z m -0.359066,0.006 c -0.583288,0.0108 -1.168853,0.0552 -1.75504,0.14548 -0.157796,0.0243 -0.312728,0.0562 -0.468631,0.086 0.749925,-0.1393 1.491764,-0.2138 2.223671,-0.23153 z m -2.223671,0.23153 c -0.126565,0.0243 -0.252962,0.0483 -0.378257,0.0762 0.126301,-0.0269 0.252399,-0.0527 0.378257,-0.0762 z m -0.799221,0.17767 c -7.212637,1.85766 -12.223801,9.6965 -13.056685,17.94855 l 3.507001,-4.78352 4.467792,3.27672 2.740592,-3.73853 4.381743,3.21356 3.402383,-4.64051 c 0,0 -3.050182,-7.72365 -5.442826,-11.27627 z M 6.259054,74.29352 c 0.007,0.0133 0.0155,0.0263 0.0229,0.0396 -0.007,-0.0133 -0.0153,-0.0264 -0.0229,-0.0396 z m -28.678176,8.8229 -4.223875,4.22326 c -0.472141,1.86118 -0.72678,3.77636 -0.72678,5.68176 0,10.6505 7.918201,19.28449 17.686058,19.28449 8.388557,-10.09527 3.694578,-27.44994 3.694578,-27.44994 l -1.324803,-1.32541 -4.06911,4.06788 -3.841293,-3.84193 -3.277951,3.27671 z" />
      </g>
      <g
         id="layer4-0"
         inkscape:label="Layer 2">
        <path
           id="path23047"
           style="display:inline;fill:url(#linearGradient23152);fill-opacity:1;stroke-width:2.35103;stroke-linejoin:round"
           d="m 319.04492,77.566406 v 0.002 c 0.0507,0 0.10162,0.0033 0.15235,0.0039 -0.1746,-8.32e-4 -0.34868,0.001 -0.52344,0.002 0.12339,0 0.24814,-0.0088 0.37109,-0.0078 z m 0,0 c -2.05146,-0.01851 -4.11209,0.09227 -6.17578,0.332032 1.60951,-0.181771 3.2175,-0.278917 4.82031,-0.308594 -2.76626,0.06701 -5.56993,0.348512 -8.40429,0.875 0.54181,-0.103565 1.08007,-0.212298 1.62695,-0.300782 -11.25823,1.767886 -21.24874,7.341638 -29.50391,15.367188 7.10005,-6.899177 15.48647,-11.981486 24.85547,-14.394531 9.04307,13.427225 20.57227,42.617191 20.57227,42.617191 l -0.002,0.002 19.32227,14.16797 13.92969,-19.00195 17.04687,12.5039 4.39844,-6 c -0.85717,-1.75634 -1.76806,-3.48467 -2.73047,-5.18164 -0.006,-0.01 -0.0117,-0.0194 -0.0176,-0.0293 -0.006,-0.0109 -0.0112,-0.0223 -0.0176,-0.0332 -13.1687,-23.178882 -35.85221,-40.399925 -59.7207,-40.615234 z m -8.13281,0.597656 c 0.0483,-0.0076 0.0962,-0.016 0.14453,-0.02344 0.13613,-0.02096 0.27209,-0.03685 0.4082,-0.05664 -0.13662,0.01974 -0.27351,0.03364 -0.41015,0.05469 -0.048,0.0074 -0.0947,0.01765 -0.14258,0.02539 z m 0.55273,-0.08008 c 0.38334,-0.05537 0.76726,-0.110847 1.15039,-0.15625 -0.38353,0.04658 -0.76666,0.100448 -1.15039,0.15625 z m 1.15039,-0.15625 c 0.0847,-0.01028 0.16925,-0.01946 0.25391,-0.0293 -0.0846,0.0096 -0.16927,0.01927 -0.25391,0.0293 z M 281.37695,93.5625 c -3.1522,3.068565 -6.04837,6.49498 -8.66601,10.20508 2.61803,-3.70864 5.51357,-7.13778 8.66601,-10.20508 z m -8.85156,10.46094 c -0.38406,0.54901 -0.75521,1.11086 -1.12695,1.67187 0.37204,-0.56116 0.74258,-1.12272 1.12695,-1.67187 z m -1.12695,1.67187 c -0.16616,0.25062 -0.33633,0.49705 -0.5,0.75 0.1635,-0.25281 0.33402,-0.49951 0.5,-0.75 z m -0.5,0.75 c -0.34598,0.53495 -0.68086,1.07995 -1.01563,1.625 0.33489,-0.54497 0.66954,-1.09013 1.01563,-1.625 z m -1.01563,1.625 c -0.16379,0.26654 -0.3311,0.52994 -0.49219,0.79883 0.161,-0.26888 0.32849,-0.53229 0.49219,-0.79883 z m -0.49219,0.79883 c -0.31626,0.52818 -0.622,1.06462 -0.92773,1.60156 0.30575,-0.53672 0.61146,-1.07361 0.92773,-1.60156 z m -0.92773,1.60156 c -0.18438,0.32367 -0.37027,0.64591 -0.55078,0.97266 0.18044,-0.32678 0.36647,-0.64896 0.55078,-0.97266 z m -0.55078,0.97266 c -0.25543,0.46258 -0.50434,0.92987 -0.75195,1.39844 0.24762,-0.46836 0.49652,-0.93607 0.75195,-1.39844 z m -0.75195,1.39844 c -0.22257,0.42096 -0.44397,0.84195 -0.66016,1.26758 0.21607,-0.42558 0.43772,-0.84666 0.66016,-1.26758 z M 266.5,114.10938 c -0.2194,0.43214 -0.43371,0.8679 -0.64648,1.30468 0.21296,-0.43696 0.42689,-0.87236 0.64648,-1.30468 z m -0.64648,1.30468 c -0.21305,0.43714 -0.42452,0.87479 -0.63086,1.31641 0.20617,-0.44142 0.418,-0.87946 0.63086,-1.31641 z m -0.63086,1.31641 c -0.21593,0.46231 -0.42625,0.9275 -0.63477,1.39453 0.20839,-0.46653 0.41898,-0.93271 0.63477,-1.39453 z m -0.63477,1.39453 c -0.19978,0.44725 -0.39692,0.89626 -0.58984,1.34766 0.19297,-0.45172 0.39001,-0.90009 0.58984,-1.34766 z m -0.58984,1.34766 c -0.18308,0.42855 -0.36222,0.85887 -0.53907,1.29101 0.17689,-0.43205 0.35595,-0.86255 0.53907,-1.29101 z m -0.53907,1.29101 c -0.20199,0.49338 -0.39995,0.98848 -0.59375,1.48633 0.19361,-0.49755 0.39197,-0.99325 0.59375,-1.48633 z m -0.59375,1.48633 c -0.172,0.44205 -0.34232,0.88467 -0.50781,1.33008 0.16552,-0.44531 0.33578,-0.88814 0.50781,-1.33008 z m -0.50781,1.33008 c -0.18648,0.50171 -0.36678,1.00594 -0.54492,1.51172 0.17813,-0.50598 0.35844,-1.00981 0.54492,-1.51172 z m -0.54492,1.51172 c -0.14435,0.41 -0.28696,0.81988 -0.42578,1.23242 0.13881,-0.41235 0.28144,-0.82261 0.42578,-1.23242 z m -0.42578,1.23242 c -0.18549,0.551 -0.36353,1.10485 -0.53906,1.66016 0.17544,-0.55522 0.35367,-1.10923 0.53906,-1.66016 z m -0.53906,1.66016 c -0.1294,0.40948 -0.25888,0.81878 -0.38282,1.23046 0.12397,-0.41163 0.25339,-0.82103 0.38282,-1.23046 z m -0.38282,1.23046 c -0.16367,0.54347 -0.31857,1.08964 -0.47265,1.63672 0.15392,-0.54667 0.30916,-1.09365 0.47265,-1.63672 z m -0.47265,1.63672 c -0.11851,0.42091 -0.24073,0.84076 -0.35352,1.26367 0.11286,-0.42305 0.23493,-0.84262 0.35352,-1.26367 z m -0.35352,1.26367 c -0.14498,0.54346 -0.27861,1.09017 -0.41406,1.63672 0.13541,-0.54653 0.26913,-1.09327 0.41406,-1.63672 z m -0.41406,1.63672 c -0.10836,0.43734 -0.22006,0.87333 -0.32227,1.3125 0.10221,-0.43906 0.21392,-0.87527 0.32227,-1.3125 z m -0.32227,1.3125 c -0.13197,0.56697 -0.25336,1.13724 -0.375,1.70703 0.12164,-0.56986 0.24304,-1.13998 0.375,-1.70703 z m -0.375,1.70703 c -0.086,0.4029 -0.17507,0.8048 -0.25586,1.20899 0.0808,-0.404 0.1699,-0.80628 0.25586,-1.20899 z m -0.25586,1.20899 c -0.13833,0.69198 -0.26379,1.38663 -0.38671,2.08203 0.1229,-0.69537 0.24841,-1.39006 0.38671,-2.08203 z m -0.38671,2.08203 c -0.0512,0.28995 -0.1077,0.57865 -0.15625,0.86914 0.0485,-0.29048 0.10499,-0.5792 0.15625,-0.86914 z m -0.15625,0.86914 c -0.13739,0.82191 -0.25943,1.64701 -0.375,2.47266 0.11558,-0.82567 0.23762,-1.65072 0.375,-2.47266 z m -0.375,2.47266 c -0.0247,0.17609 -0.0564,0.3511 -0.0801,0.52734 0.0236,-0.17622 0.0554,-0.35127 0.0801,-0.52734 z m -0.0801,0.52734 c -0.13579,1.01184 -0.25489,2.02514 -0.35742,3.04102 0.10255,-1.01584 0.22163,-2.0292 0.35742,-3.04102 z m -0.35742,3.04102 13.2539,-18.07618 16.88672,12.38282 v -0.002 L 270.1699,128.89254 Z m 40.49804,-19.82422 v 0.002 l 16.5625,12.14453 v -0.002 z m 30.00196,25.86133 -15.38086,15.37109 0.002,0.002 z m 33.59765,0.28515 -16.6582,16.6543 -11.93359,-11.9336 c 0,0 17.74189,65.5927 -13.9629,103.74805 -1.15368,0 -2.30012,-0.0308 -3.43945,-0.0937 1.13933,0.063 2.28577,0.0957 3.43945,0.0957 36.91784,0 66.84766,-32.63289 66.84766,-72.88671 0,-8.74764 -1.41653,-17.55092 -4.00781,-25.97461 l -5.33789,5.33789 z m -107.2832,16.75586 c -0.39419,1.77041 -0.73639,3.55146 -1.02344,5.33984 0.28706,-1.78846 0.62924,-3.56939 1.02344,-5.33984 z m -1.71875,10.72461 c -0.17542,1.79819 -0.29394,3.59929 -0.35352,5.40039 0.0596,-1.80114 0.17805,-3.60213 0.35352,-5.40039 z m 2.60742,29.77734 c 0.32551,1.14115 0.67592,2.27039 1.05078,3.38672 -0.37486,-1.11633 -0.72527,-2.24558 -1.05078,-3.38672 z m 18.89453,32.27735 c 0.79139,0.78429 1.60044,1.54833 2.42578,2.29101 -0.82533,-0.74269 -1.63439,-1.50672 -2.42578,-2.29101 z m 2.42578,2.29101 c 0.82535,0.74269 1.6675,1.46451 2.52539,2.16407 -0.85789,-0.69957 -1.70005,-1.42138 -2.52539,-2.16407 z m 2.52539,2.16407 c 0.85719,0.69898 1.73085,1.37684 2.61914,2.03125 -0.88904,-0.65491 -1.76125,-1.33169 -2.61914,-2.03125 z m 2.6211,2.0332 c 0.88905,0.65491 1.79213,1.2858 2.71094,1.89453 -0.91804,-0.60823 -1.82261,-1.2402 -2.71094,-1.89453 z m 2.71094,1.89453 c 1.3782,0.91309 2.78925,1.77323 4.23046,2.57813 -1.4412,-0.8049 -2.85227,-1.66503 -4.23046,-2.57813 z m 4.23046,2.57813 c 0.96081,0.53659 1.93482,1.04855 2.92188,1.53515 -0.98705,-0.4866 -1.96108,-0.99856 -2.92188,-1.53515 z m 12.60157,5.34765 c 0.90456,0.27234 1.81486,0.52833 2.73437,0.75977 -0.91884,-0.23128 -1.83046,-0.48766 -2.73437,-0.75977 z m 2.73437,0.75977 c 2.15614,0.5427 4.35168,0.97211 6.58203,1.28125 -2.23035,-0.30914 -4.42589,-0.73855 -6.58203,-1.28125 z"
           transform="scale(0.26458333)" />
      </g>
    </g>
  </g>
</svg>
