<?xml version="1.0" encoding="UTF-8" standalone="no"?>
<!-- Created with Inkscape (http://www.inkscape.org/) -->

<svg
   width="419.05356mm"
   height="78.266495mm"
   viewBox="0 0 419.05355 78.266495"
   version="1.1"
   id="svg5"
   inkscape:version="1.1.1 (3bf5ae0, 2021-09-20)"
   sodipodi:docname="logo.svg"
   inkscape:export-filename="D:\Source\GitHubClones\poolygotchi\docs\favicon.png"
   inkscape:export-xdpi="79.297562"
   inkscape:export-ydpi="79.297562"
   xmlns:inkscape="http://www.inkscape.org/namespaces/inkscape"
   xmlns:sodipodi="http://sodipodi.sourceforge.net/DTD/sodipodi-0.dtd"
   xmlns:xlink="http://www.w3.org/1999/xlink"
   xmlns="http://www.w3.org/2000/svg"
   xmlns:svg="http://www.w3.org/2000/svg">
  <sodipodi:namedview
     id="namedview7"
     pagecolor="#4f4f4f"
     bordercolor="#111111"
     borderopacity="1"
     inkscape:pageshadow="0"
     inkscape:pageopacity="0"
     inkscape:pagecheckerboard="1"
     inkscape:document-units="mm"
     showgrid="false"
     inkscape:zoom="0.31476084"
     inkscape:cx="586.15932"
     inkscape:cy="-23.827615"
     inkscape:window-width="1862"
     inkscape:window-height="1016"
     inkscape:window-x="0"
     inkscape:window-y="0"
     inkscape:window-maximized="1"
     inkscape:current-layer="layer2"
     fit-margin-top="15"
     fit-margin-left="20"
     fit-margin-right="20"
     fit-margin-bottom="10" />
  <defs
     id="defs2">
    <linearGradient
       inkscape:collect="always"
       id="linearGradient19808">
      <stop
         style="stop-color:#2c2c2c;stop-opacity:0.25523755"
         offset="0"
         id="stop19804" />
      <stop
         style="stop-color:#ffffff;stop-opacity:0;"
         offset="1"
         id="stop19806" />
    </linearGradient>
    <linearGradient
       inkscape:collect="always"
       id="linearGradient25468">
      <stop
         style="stop-color:#e85d75;stop-opacity:1"
         offset="0"
         id="stop25464" />
      <stop
         style="stop-color:#f5fbef;stop-opacity:1"
         offset="0.48243436"
         id="stop26108" />
      <stop
         style="stop-color:#40f99b;stop-opacity:1"
         offset="1"
         id="stop25466" />
    </linearGradient>
    <linearGradient
       inkscape:collect="always"
       id="linearGradient9713">
      <stop
         style="stop-color:#ffffff;stop-opacity:0.42745098"
         offset="0"
         id="stop9709" />
      <stop
         style="stop-color:#000000;stop-opacity:0"
         offset="1"
         id="stop9711" />
    </linearGradient>
    <linearGradient
       inkscape:collect="always"
       id="linearGradient7154">
      <stop
         style="stop-color:#512bc7;stop-opacity:1"
         offset="0"
         id="stop7150" />
      <stop
         style="stop-color:#2900c0;stop-opacity:1"
         offset="1"
         id="stop7152" />
    </linearGradient>
    <inkscape:path-effect
       effect="bspline"
       id="path-effect2064"
       is_visible="true"
       lpeversion="1"
       weight="33.333333"
       steps="2"
       helper_size="0"
       apply_no_weight="true"
       apply_with_weight="true"
       only_selected="false" />
    <inkscape:path-effect
       effect="bspline"
       id="path-effect1696"
       is_visible="true"
       lpeversion="1"
       weight="33.333333"
       steps="2"
       helper_size="0"
       apply_no_weight="true"
       apply_with_weight="true"
       only_selected="false" />
    <inkscape:path-effect
       effect="bspline"
       id="path-effect1659"
       is_visible="true"
       lpeversion="1"
       weight="33.333333"
       steps="2"
       helper_size="0"
       apply_no_weight="true"
       apply_with_weight="true"
       only_selected="false" />
    <linearGradient
       inkscape:collect="always"
       xlink:href="#linearGradient7154"
       id="linearGradient7156"
       x1="112.15154"
       y1="115.78323"
       x2="110.57948"
       y2="91.923889"
       gradientUnits="userSpaceOnUse"
       gradientTransform="matrix(0.51925087,0,0,0.51925087,164.69682,37.422151)" />
    <linearGradient
       inkscape:collect="always"
       xlink:href="#linearGradient9713"
       id="linearGradient9707"
       gradientUnits="userSpaceOnUse"
       gradientTransform="matrix(0.51925087,0,0,0.51925087,164.69682,37.422151)"
       x1="132.27698"
       y1="95.058319"
       x2="107.13811"
       y2="103.57103" />
    <linearGradient
       inkscape:collect="always"
       xlink:href="#linearGradient25468"
       id="linearGradient26944"
       gradientUnits="userSpaceOnUse"
       x1="82.697472"
       y1="-37.047024"
       x2="474.93253"
       y2="75.336128"
       gradientTransform="matrix(0.93758982,0,0,0.93758982,-47.085034,97.160813)" />
    <linearGradient
       inkscape:collect="always"
       xlink:href="#linearGradient19808"
       id="linearGradient19810"
       x1="778.60022"
       y1="147.7195"
       x2="852.70105"
       y2="127.94835"
       gradientUnits="userSpaceOnUse"
       gradientTransform="matrix(0.26458333,0,0,0.26458333,0,66.72915)" />
    <linearGradient
       inkscape:collect="always"
       xlink:href="#linearGradient25468"
       id="linearGradient21745"
       gradientUnits="userSpaceOnUse"
       gradientTransform="matrix(3.5436466,0,0,3.5436466,-171.53648,126.61142)"
       x1="82.697472"
       y1="-37.047024"
       x2="474.93253"
       y2="75.336128" />
    <linearGradient
       inkscape:collect="always"
       xlink:href="#linearGradient25468"
       id="linearGradient21748"
       gradientUnits="userSpaceOnUse"
       gradientTransform="matrix(3.5436466,0,0,3.5436466,-171.53648,126.61142)"
       x1="82.697472"
       y1="-37.047024"
       x2="474.93253"
       y2="75.336128" />
    <linearGradient
       inkscape:collect="always"
       xlink:href="#linearGradient25468"
       id="linearGradient21751"
       gradientUnits="userSpaceOnUse"
       gradientTransform="matrix(3.5436466,0,0,3.5436466,-171.53648,126.61142)"
       x1="82.697472"
       y1="-37.047024"
       x2="474.93253"
       y2="75.336128" />
    <linearGradient
       inkscape:collect="always"
       xlink:href="#linearGradient25468"
       id="linearGradient21754"
       gradientUnits="userSpaceOnUse"
       gradientTransform="matrix(3.5436466,0,0,3.5436466,-171.53648,126.61142)"
       x1="82.697472"
       y1="-37.047024"
       x2="474.93253"
       y2="75.336128" />
  </defs>
  <g
     inkscape:groupmode="layer"
     id="layer5"
     inkscape:label="text"
     style="display:inline"
     transform="translate(-72.572143,-31.874433)" />
  <g
     inkscape:groupmode="layer"
     id="layer1"
     inkscape:label="egg"
     style="display:inline"
     transform="translate(1.699341,-63.661542)">
    <circle
       style="fill:url(#linearGradient7156);fill-opacity:1;stroke:none;stroke-width:0.0699218;stroke-linejoin:round;stroke-miterlimit:4;stroke-dasharray:none"
       id="path7068"
       cx="223.30957"
       cy="96.222046"
       r="10.628746" />
    <ellipse
       style="fill:#000000;fill-opacity:1;stroke:none;stroke-width:0.0519251;stroke-linejoin:round;stroke-miterlimit:4;stroke-dasharray:none"
       id="path7200"
       cx="218.54846"
       cy="94.564453"
       rx="2.7570605"
       ry="3.1572788" />
    <ellipse
       style="fill:#000000;fill-opacity:1;stroke:none;stroke-width:0.0519251;stroke-linejoin:round;stroke-miterlimit:4;stroke-dasharray:none"
       id="ellipse7591"
       cx="228.17033"
       cy="94.564453"
       rx="2.7570605"
       ry="3.1572788" />
    <ellipse
       style="fill:#ffffff;fill-opacity:1;stroke:none;stroke-width:0.0103393;stroke-linejoin:round;stroke-miterlimit:4;stroke-dasharray:none"
       id="ellipse7593"
       cx="218.90131"
       cy="93.057968"
       rx="0.54898423"
       ry="0.62867528" />
    <ellipse
       style="fill:#ffffff;fill-opacity:1;stroke:none;stroke-width:0.0130818;stroke-linejoin:round;stroke-miterlimit:4;stroke-dasharray:none"
       id="ellipse7793"
       cx="219.53497"
       cy="93.724991"
       rx="0.69460362"
       ry="0.79543304" />
    <ellipse
       style="fill:#ffffff;fill-opacity:1;stroke:none;stroke-width:0.0103393;stroke-linejoin:round;stroke-miterlimit:4;stroke-dasharray:none"
       id="ellipse7795"
       cx="228.53987"
       cy="93.057968"
       rx="0.54898423"
       ry="0.62867528" />
    <ellipse
       style="fill:#ffffff;fill-opacity:1;stroke:none;stroke-width:0.0130818;stroke-linejoin:round;stroke-miterlimit:4;stroke-dasharray:none"
       id="ellipse7797"
       cx="229.17357"
       cy="93.724991"
       rx="0.69460362"
       ry="0.79543304" />
    <circle
       style="fill:url(#linearGradient9707);fill-opacity:1;stroke:none;stroke-width:0.0699218;stroke-linejoin:round;stroke-miterlimit:4;stroke-dasharray:none"
       id="circle9685"
       cx="223.30957"
       cy="96.222046"
       r="10.628746" />
    <path
       id="path21723"
       style="display:inline;fill:url(#linearGradient21745);fill-opacity:1;stroke-width:1.96252;stroke-linejoin:round"
       d="M 131.61133 100.66016 C 121.19125 100.66016 111.63435 103.08925 103.13281 107.94727 L 103.125 107.95508 L 103.10938 107.95508 C 94.764193 112.80049 88.048765 119.5236 83.082031 127.98047 L 83.082031 127.98828 L 83.074219 127.99609 C 78.212749 136.36864 75.72331 145.85139 75.589844 156.26172 L 75.589844 156.27734 L 75.589844 246.91797 C 75.589844 249.74691 76.462433 252.41945 78.34375 254.30078 C 80.298404 256.25544 83.028731 257.24609 85.910156 257.24609 C 88.643821 257.24609 91.239732 256.18843 93.054688 254.26367 C 95.017464 252.41613 96.044922 249.74849 96.044922 246.91797 L 96.044922 197.82812 C 99.680238 201.5623 103.71063 204.9477 108.57227 207.55859 L 108.60156 207.57422 L 108.625 207.58984 C 116.07971 211.38498 124.36898 213.27344 133.33984 213.27344 C 143.63762 213.27344 153.01582 210.84598 161.27344 205.97266 L 161.28711 205.96484 L 161.30273 205.94922 C 169.50446 200.97442 176.02092 194.19015 180.72461 185.73633 C 185.58584 177.22918 188.00977 167.60894 188.00977 157.06641 C 188.00977 146.4013 185.52335 136.71205 180.5332 128.20312 L 180.52539 128.19531 C 175.68426 119.72701 168.96437 112.9956 160.49805 108.15234 C 160.49604 108.15134 160.49401 108.15335 160.49023 108.15234 C 151.97587 103.15333 142.2878 100.66016 131.61328 100.66016 L 131.61133 100.66016 z M 131.61133 119.77344 L 131.61328 119.77344 C 138.58032 119.77375 144.66801 121.42386 150.10352 124.73242 L 150.125 124.74805 L 150.14062 124.75586 C 155.61044 127.9664 159.82144 132.29695 162.91797 137.89453 L 162.93359 137.91016 L 162.94141 137.93359 C 166.1379 143.49781 167.75391 149.81356 167.75391 157.06836 C 167.75391 164.18793 166.14631 170.51318 162.93359 176.22461 L 162.92578 176.23242 L 162.91992 176.23828 C 159.82339 181.83584 155.61044 186.16054 150.14062 189.37109 C 144.70117 192.56381 138.59743 194.16992 131.61328 194.16992 C 124.76485 194.16992 118.71475 192.56835 113.26758 189.37109 C 107.8056 186.16515 103.60115 181.8476 100.50586 176.26172 L 100.50586 176.25586 C 97.411715 170.54114 95.855469 164.20341 95.855469 157.07031 C 95.855469 149.79979 97.409557 143.4693 100.49023 137.90039 C 103.58677 132.3028 107.79778 127.9703 113.26758 124.75977 L 113.29102 124.75195 L 113.30664 124.73828 C 118.74992 121.42498 124.78031 119.77765 131.61133 119.77734 L 131.61133 119.77344 z "
       transform="matrix(0.26458333,0,0,0.26458333,-1.699341,63.661542)" />
    <path
       id="path21719"
       style="display:inline;fill:url(#linearGradient21748);fill-opacity:1;stroke-width:1.96252;stroke-linejoin:round"
       d="M 261.97461 100.66016 C 251.30943 100.66016 241.62602 103.08284 233.11328 107.94727 C 224.63277 112.79327 217.89483 119.52927 213.04883 128.00977 C 208.18118 136.52813 205.76172 146.27846 205.76172 157.06641 C 205.76172 167.73159 208.18439 177.41694 213.04883 185.92969 C 217.89483 194.41019 224.63277 201.14033 233.11328 205.98633 C 241.62602 210.85073 251.30943 213.27148 261.97461 213.27148 C 272.63375 213.27148 282.25597 210.85462 290.64648 205.98633 C 299.12389 201.14207 305.85751 194.41174 310.70312 185.93555 C 315.69656 177.42462 318.18945 167.73495 318.18945 157.06641 L 318.18945 157.04492 L 318.18945 157.0293 C 318.05641 146.25054 315.57296 136.51831 310.71094 128.00977 C 305.8677 119.53408 299.13585 112.79852 290.66211 107.95312 L 290.64648 107.94727 C 282.25587 103.07968 272.63375 100.66017 261.97461 100.66016 z M 261.97461 119.77344 L 261.97656 119.77344 L 261.97852 119.77344 C 268.961 119.77404 275.07329 121.37038 280.51172 124.5625 C 285.96834 127.76531 290.17481 132.14891 293.27539 137.87305 L 293.2832 137.88086 L 293.29102 137.89648 C 296.3717 143.46539 297.92773 149.7978 297.92773 157.06836 C 297.92773 164.33889 296.3717 170.66937 293.29102 176.23828 C 290.19448 181.83584 285.98348 186.16057 280.51367 189.37109 C 275.07422 192.56381 268.96263 194.16992 261.97852 194.16992 C 254.99437 194.16992 248.88868 192.56381 243.44922 189.37109 C 237.98417 186.16337 233.69656 181.83606 230.47266 176.23828 L 230.46484 176.22266 C 227.3894 170.65719 225.83594 164.33073 225.83594 157.06641 C 225.83594 149.80208 227.3894 143.47562 230.46484 137.91016 L 230.46484 137.90234 C 230.46684 137.89936 230.47266 137.90026 230.47266 137.89648 C 233.70181 132.16131 237.98954 127.76905 243.44922 124.56445 C 248.88766 121.37233 254.9921 119.77404 261.97461 119.77344 z "
       transform="matrix(0.26458333,0,0,0.26458333,-1.699341,63.661542)" />
    <path
       style="display:inline;fill:url(#linearGradient26944);fill-opacity:1;stroke-width:0.519251;stroke-linejoin:round"
       d="m 101.24395,90.294745 c -2.724672,2e-6 -5.177931,0.662596 -7.298781,1.990576 -7.94e-4,5.3e-4 -0.0011,0.0016 -0.0021,0.0021 -2.108379,1.287047 -3.783184,3.070498 -4.991944,5.310272 -1.214479,2.250361 -1.816428,4.805657 -1.816428,7.621237 0,2.78622 0.623303,5.32789 1.873272,7.57783 l 0.0016,0.004 0.0021,0.004 c 1.278358,2.23712 3.018544,4.03097 5.189863,5.348 l 0.0057,0.004 0.0062,0.004 c 2.21936,1.28866 4.751753,1.9296 7.541138,1.9296 3.84413,0 7.14085,-1.20416 9.74979,-3.59771 0.51162,-0.46511 0.77161,-1.17582 0.68368,-1.85726 -0.0568,-0.65997 -0.37774,-1.27574 -0.8847,-1.74046 l -0.016,-0.0134 -0.0176,-0.0139 c -0.49514,-0.40512 -1.12183,-0.62243 -1.74977,-0.57413 -0.61328,0.0472 -1.19416,0.31464 -1.69343,0.73071 l -0.008,0.008 -0.008,0.006 c -0.76925,0.67694 -1.65621,1.18244 -2.68356,1.52549 -0.99875,0.311 -2.11988,0.47284 -3.37292,0.47284 -1.847874,0 -3.445661,-0.4243 -4.84776,-1.26556 -1.411901,-0.84714 -2.492378,-1.98946 -3.279389,-3.46904 -0.784529,-1.47491 -1.181322,-3.15403 -1.181322,-5.08186 0,-1.97088 0.369306,-3.67791 1.091406,-5.1542 2.65e-4,-5.3e-4 -2.59e-4,-0.002 0,-0.002 0.75696,-1.478285 1.773807,-2.614972 3.078367,-3.455082 l 0.0021,-0.0021 c 0.0011,-7.94e-4 0.0026,-0.0013 0.0036,-0.0021 1.33068,-0.833964 2.850121,-1.252119 4.623488,-1.252119 2.79277,0 5.01322,1.004086 6.85333,3.098003 l -0.0119,-0.01601 c 0.42131,0.505577 0.96343,0.872501 1.57613,1.013891 l 0.0315,0.0057 0.031,0.0062 c 0.63865,0.09124 1.29432,-0.06555 1.81281,-0.441317 0.5767,-0.412972 1.00879,-0.958712 1.15807,-1.605584 v -0.0062 l 0.002,-0.0057 c 0.14935,-0.696976 -0.094,-1.436703 -0.58239,-1.974556 -1.3805,-1.691675 -3.00757,-2.983481 -4.86689,-3.841626 -1.82994,-0.860097 -3.84174,-1.289328 -6.00376,-1.289328 z"
       id="path21715" />
    <path
       style="display:inline;fill:url(#linearGradient26944);fill-opacity:1;stroke-width:0.519251;stroke-linejoin:round"
       d="m 121.51351,78.661865 c -0.7375,0 -1.44372,0.268597 -1.95285,0.777729 -0.48893,0.488927 -0.72657,1.17942 -0.72657,1.902209 v 35.814347 c 0,0.7228 0.23478,1.41322 0.7028,1.92805 l 0.0238,0.0253 0.0274,0.0233 c 0.51483,0.46803 1.20266,0.70332 1.92546,0.70332 0.72279,0 1.41328,-0.23765 1.90221,-0.72657 0.50913,-0.50914 0.77928,-1.21588 0.77928,-1.95337 v -7.62899 l 2.99052,-2.7032 9.95133,12.22871 -0.0119,-0.0176 c 0.43029,0.55938 1.05535,0.93096 1.73632,0.98857 0.68668,0.0877 1.38338,-0.15391 1.93374,-0.61959 0.54424,-0.46052 0.92292,-1.06027 0.97462,-1.7322 v -0.002 -0.004 c 0.0476,-0.66591 -0.19134,-1.32577 -0.62891,-1.85157 l -10.11721,-12.45712 9.61492,-8.687841 c 0.52138,-0.434485 0.85544,-1.06032 0.86558,-1.720307 0.0382,-0.673185 -0.22059,-1.337927 -0.69143,-1.851568 -0.46464,-0.50688 -1.08478,-0.829952 -1.74408,-0.840258 -0.65631,-0.03999 -1.29913,0.227661 -1.80506,0.69143 l -13.06794,11.807034 v -21.4142 c 0,-0.723905 -0.27898,-1.410589 -0.7891,-1.890839 -0.48025,-0.510136 -1.16899,-0.789099 -1.8929,-0.789099 z"
       id="path21713" />
    <path
       id="path21711"
       style="display:inline;fill:url(#linearGradient21751);fill-opacity:1;stroke-width:1.96252;stroke-linejoin:round"
       d="M 603.35156 100.66016 C 593.05379 100.66016 583.78563 103.09665 575.76562 107.99023 C 567.79267 112.85507 561.45895 119.60184 556.88867 128.07031 L 556.88281 128.07812 L 556.88281 128.08594 C 552.4153 136.47948 550.2168 146.19209 550.2168 157.06836 C 550.2168 167.84462 552.55665 177.57893 557.28711 186.09375 L 557.29297 186.10742 L 557.30078 186.12305 C 562.14118 194.59372 568.80726 201.32297 577.1582 206.17188 L 577.18164 206.1875 L 577.20508 206.20312 C 585.7199 210.93358 595.4542 213.27539 606.23047 213.27539 C 612.60835 213.27539 619.2065 212.05318 625.99219 209.6582 L 626.01367 209.65039 L 626.03711 209.64258 C 632.80103 207.12269 638.47098 203.97752 643.00195 200.13477 C 645.03428 198.43719 646.21929 195.85105 646.07227 193.24805 C 646.03145 190.62555 644.74843 188.15825 642.71289 186.2793 L 642.64062 186.21289 L 642.56641 186.14648 C 640.76614 184.70626 638.42234 184.07935 636.08398 184.2207 C 633.72431 184.24716 631.42289 185.05135 629.58789 186.55273 L 629.55664 186.57422 L 629.52734 186.60547 C 627.07247 188.72559 623.62669 190.62323 619.1543 192.19922 C 619.15052 192.20122 619.14245 192.19722 619.13867 192.19922 C 614.8045 193.64236 610.51485 194.36328 606.22656 194.36328 C 598.9718 194.36328 592.73842 192.7481 587.31445 189.56445 C 581.84941 186.35669 577.56183 182.02942 574.33789 176.43164 L 574.33008 176.41602 C 572.38982 172.9048 571.27793 168.92173 570.55664 164.70117 L 644.62695 164.70117 C 647.20644 164.70117 649.67493 163.89705 651.51367 162.24219 L 651.57422 162.19727 L 651.625 162.13867 C 653.43948 160.32416 654.37109 157.78696 654.37109 155.14844 C 654.37109 152.54434 653.85034 150.19168 653.58789 147.71484 L 654.93945 146.74023 L 653.48633 146.74023 C 652.64092 139.73692 651.10936 133.0712 648.11133 127.17188 C 643.92599 118.93619 637.89723 112.41822 630.16602 107.80078 C 622.51527 103.02699 613.49848 100.66211 603.34766 100.66211 L 603.35156 100.66016 z M 603.35156 119.58008 C 610.08086 119.58008 615.62706 121.1147 620.24023 124.11328 L 620.25586 124.12109 L 620.26367 124.13086 C 625.06681 127.17676 628.71231 131.326 631.32227 136.7832 C 632.78449 139.84053 633.71502 143.19878 634.32617 146.74023 L 570.73047 146.74023 C 571.41978 143.46025 572.44666 140.41192 573.82422 137.59375 L 573.83203 137.58594 C 573.83301 137.58393 573.83101 137.57812 573.83203 137.57812 C 576.69555 131.85721 580.59829 127.50529 585.6582 124.32812 C 590.68452 121.17209 596.50317 119.58008 603.35156 119.58008 z "
       transform="matrix(0.26458333,0,0,0.26458333,-1.699341,63.661542)" />
    <path
       style="display:inline;fill:url(#linearGradient26944);fill-opacity:1;stroke-width:0.519251;stroke-linejoin:round"
       d="m 180.74607,81.709225 c -0.7375,0 -1.44217,0.270147 -1.9513,0.77928 l -0.0134,0.01138 -0.0119,0.01394 c -0.46803,0.514829 -0.7028,1.204741 -0.7028,1.927532 v 7.123078 h -2.55281 c -0.66736,0 -1.30918,0.259358 -1.77922,0.720886 -0.48237,0.443183 -0.74828,1.090198 -0.74828,1.757516 0,0.652704 0.26623,1.285804 0.72864,1.748214 l 0.0134,0.0155 0.0139,0.01188 c 0.47727,0.429535 1.11347,0.650089 1.77147,0.650089 h 2.55282 v 12.81472 c 0,2.00368 0.43366,3.82984 1.31051,5.4374 l 0.002,0.004 0.002,0.004 c 0.87124,1.56096 2.07052,2.81615 3.5667,3.72846 l 0.004,0.002 0.002,0.002 c 1.54154,0.91758 3.29819,1.37511 5.21105,1.37511 h 1.0666 c 0.74849,0 1.45594,-0.22488 2.00401,-0.68161 l 0.0135,-0.0119 0.0139,-0.0119 c 0.54827,-0.50258 0.85163,-1.22235 0.85163,-1.97456 0,-0.72279 -0.23529,-1.4127 -0.70332,-1.92753 -0.47259,-0.51985 -1.16108,-0.80253 -1.87482,-0.80253 h -1.37149 c -1.41876,0 -2.47765,-0.44751 -3.35897,-1.38493 -0.88499,-0.97481 -1.32654,-2.17955 -1.32654,-3.75791 V 96.468638 h 4.98988 c 0.658,0 1.2942,-0.220554 1.77147,-0.650089 l 0.0139,-0.01188 0.0155,-0.01551 c 0.46241,-0.462409 0.72657,-1.09551 0.72657,-1.748213 0,-0.667319 -0.26592,-1.314333 -0.74828,-1.757516 -0.46994,-0.460706 -1.11248,-0.720886 -1.77922,-0.720886 h -4.98987 v -7.123078 c 0,-0.737497 -0.27014,-1.44372 -0.77928,-1.952853 -0.50913,-0.509132 -1.21587,-0.77928 -1.95337,-0.77928 z"
       id="path21707" />
    <path
       id="path21705"
       style="display:inline;fill:url(#linearGradient21754);fill-opacity:1;stroke-width:1.96252;stroke-linejoin:round"
       d="M 1022.0215 100.66016 C 1011.6014 100.66016 1002.0445 103.08925 993.54297 107.94727 L 993.53516 107.95508 L 993.52734 107.95508 C 985.18218 112.80067 978.46671 119.5236 973.5 127.98047 L 973.49219 127.99023 L 973.49219 127.99805 C 968.63073 136.37058 966.13346 145.8533 966 156.26367 L 966 156.27734 L 966 246.91797 C 966 249.74691 966.87257 252.41945 968.75391 254.30078 C 970.70853 256.25544 973.44673 257.24609 976.32812 257.24609 C 979.06174 257.24609 981.64991 256.18836 983.46484 254.26367 C 985.42763 252.41613 986.45508 249.74849 986.45508 246.91797 L 986.45508 197.82812 C 990.09064 201.56283 994.12029 204.94743 998.98242 207.55859 L 999.01367 207.57422 L 999.04297 207.58984 C 1006.4977 211.38498 1014.7791 213.27344 1023.75 213.27344 C 1034.0477 213.27344 1043.4318 210.84602 1051.6895 205.97266 L 1051.7051 205.96484 L 1051.7207 205.94922 C 1059.9301 200.96973 1066.4457 194.17974 1071.1504 185.71484 C 1076.0039 177.21272 1078.4277 167.60059 1078.4277 157.06641 C 1078.4277 146.38943 1075.9291 136.68962 1070.9277 128.17383 C 1066.0849 119.71181 1059.3598 112.98586 1050.8945 108.14648 C 1042.3836 103.15306 1032.692 100.66016 1022.0234 100.66016 L 1022.0215 100.66016 z M 1152.3867 100.66016 C 1141.7215 100.66016 1132.042 103.08284 1123.5293 107.94727 C 1115.0488 112.79327 1108.3128 119.52927 1103.4668 128.00977 C 1098.5992 136.52813 1096.1797 146.27846 1096.1797 157.06641 C 1096.1797 167.73159 1098.6024 177.41694 1103.4668 185.92969 C 1108.3128 194.41019 1115.0488 201.14033 1123.5293 205.98633 C 1132.042 210.85073 1141.7215 213.27148 1152.3867 213.27148 C 1163.0434 213.27148 1172.6677 210.85232 1181.0566 205.98633 C 1189.5342 201.14207 1196.2677 194.41174 1201.1133 185.93555 C 1206.1067 177.42462 1208.5996 167.73499 1208.5996 157.06641 L 1208.5996 157.04492 L 1208.5996 157.0293 C 1208.4666 146.2505 1205.9831 136.51831 1201.1211 128.00977 C 1196.2751 119.52928 1189.5371 112.79327 1181.0566 107.94727 C 1172.6677 103.08124 1163.0434 100.66016 1152.3867 100.66016 z M 1282.3711 100.66016 C 1271.7068 100.66046 1262.0219 103.08313 1253.5098 107.94727 C 1245.0293 112.79327 1238.2933 119.52927 1233.4473 128.00977 C 1228.5796 136.52813 1226.1602 146.27846 1226.1602 157.06641 C 1226.1602 167.73159 1228.5828 177.41694 1233.4473 185.92969 C 1238.2933 194.41019 1245.0293 201.14033 1253.5098 205.98633 C 1262.0225 210.85073 1271.7079 213.27148 1282.373 213.27148 C 1293.0322 213.27148 1302.6544 210.85462 1311.0449 205.98633 C 1319.5145 201.14657 1326.2413 194.42407 1331.0859 185.95898 C 1336.0873 177.44322 1338.5859 167.74338 1338.5859 157.06641 L 1338.5859 157.04492 L 1338.5859 157.0293 C 1338.4529 146.2505 1335.9714 136.51831 1331.1094 128.00977 C 1326.2661 119.53408 1319.5323 112.79852 1311.0586 107.95312 L 1311.043 107.94727 C 1302.653 103.07925 1293.0314 100.66046 1282.373 100.66016 L 1282.3711 100.66016 z M 1282.373 119.77148 L 1282.3809 119.77344 C 1289.3618 119.77464 1295.465 121.37098 1300.9023 124.5625 C 1306.359 127.76531 1310.5713 132.14891 1313.6719 137.87305 L 1313.6836 137.88086 L 1313.6953 137.89648 C 1316.7759 143.46539 1318.332 149.7978 1318.332 157.06836 C 1318.332 164.33889 1316.7759 170.66937 1313.6953 176.23828 C 1310.5988 181.83584 1306.38 186.16057 1300.9102 189.37109 C 1295.4708 192.56381 1289.365 194.16992 1282.3809 194.16992 C 1275.3967 194.16992 1269.2851 192.56381 1263.8457 189.37109 C 1258.3806 186.16333 1254.0989 181.83606 1250.875 176.23828 L 1250.8633 176.22266 C 1247.7879 170.65719 1246.2344 164.3307 1246.2344 157.06641 C 1246.2344 149.80208 1247.7879 143.47562 1250.8633 137.91016 L 1250.8633 137.90234 C 1250.8633 137.89936 1250.875 137.90026 1250.875 137.89648 C 1254.1041 132.16129 1258.386 127.76905 1263.8457 124.56445 C 1269.2831 121.37293 1275.3922 119.77464 1282.373 119.77344 L 1282.373 119.77148 z M 1022.0215 119.77344 L 1022.0234 119.77344 C 1028.9904 119.77375 1035.0782 121.42386 1040.5137 124.73242 L 1040.5371 124.74805 L 1040.5586 124.75586 C 1046.0284 127.9664 1050.2394 132.29695 1053.3359 137.89453 L 1053.3438 137.91016 L 1053.3594 137.93359 C 1056.5559 143.49781 1058.1641 149.81356 1058.1641 157.06836 C 1058.1641 164.18793 1056.5564 170.51318 1053.3438 176.22461 L 1053.3359 176.23242 L 1053.3359 176.23828 C 1050.2394 181.83587 1046.0264 186.16057 1040.5566 189.37109 C 1035.1172 192.56381 1029.0056 194.16992 1022.0215 194.16992 C 1015.1731 194.16992 1009.1249 192.56839 1003.6777 189.37109 C 998.21575 186.16519 994.00934 181.84763 990.91406 176.26172 L 990.91406 176.25586 C 987.81991 170.54114 986.26367 164.20341 986.26367 157.07031 C 986.26367 149.79979 987.81778 143.46934 990.89844 137.90039 C 993.99497 132.30283 998.20793 127.9703 1003.6777 124.75977 L 1003.7012 124.75195 L 1003.7227 124.73828 C 1009.166 121.42498 1015.1885 119.77765 1022.0195 119.77734 L 1022.0215 119.77344 z M 1152.3867 119.77344 L 1152.3945 119.77344 C 1159.3754 119.77464 1165.4844 121.37098 1170.9219 124.5625 C 1176.3785 127.76531 1180.585 132.14891 1183.6855 137.87305 L 1183.6973 137.88086 L 1183.709 137.89648 C 1186.7897 143.46539 1188.3457 149.79783 1188.3457 157.06836 C 1188.3457 164.33892 1186.7897 170.66937 1183.709 176.23828 C 1180.6125 181.83584 1176.4014 186.16057 1170.9316 189.37109 C 1165.4921 192.56381 1159.3806 194.16992 1152.3965 194.16992 C 1145.4124 194.16992 1139.3066 192.56381 1133.8672 189.37109 C 1128.4021 186.16337 1124.1204 181.83603 1120.8965 176.23828 L 1120.8887 176.22266 C 1117.8132 170.65719 1116.252 164.3307 1116.252 157.06641 C 1116.252 149.79584 1117.8139 143.46344 1120.8945 137.89453 C 1124.1235 132.16129 1128.4068 127.76831 1133.8652 124.56445 C 1139.3027 121.37293 1145.4059 119.77464 1152.3867 119.77344 z "
       transform="matrix(0.26458333,0,0,0.26458333,-1.699341,63.661542)" />
    <path
       style="display:inline;fill:url(#linearGradient26944);fill-opacity:1;stroke-width:0.519251;stroke-linejoin:round"
       d="m 360.25166,78.661865 c -0.7375,0 -1.44422,0.268597 -1.95336,0.777729 -0.48893,0.488927 -0.72657,1.17942 -0.72657,1.902209 v 28.956887 c 0,1.81053 0.30244,3.44045 0.92604,4.87102 l 0.004,0.008 0.003,0.008 c 0.65577,1.42082 1.5717,2.56764 2.73627,3.39411 l 0.004,0.004 0.006,0.004 c 1.20396,0.82772 2.58977,1.24799 4.08194,1.24799 h 0.66043 c 0.80232,0 1.54146,-0.21176 2.10529,-0.68162 l 0.003,-0.002 0.004,-0.002 c 0.58571,-0.4956 0.92604,-1.22729 0.92604,-1.9942 0,-0.70081 -0.20775,-1.35946 -0.64442,-1.85363 -0.43447,-0.52107 -1.09871,-0.82631 -1.78334,-0.82631 h -1.26969 c -0.66032,0 -1.14202,-0.26939 -1.65211,-1.02888 -0.47783,-0.76194 -0.74827,-1.79458 -0.74827,-3.14864 V 81.341803 c 0,-0.7239 -0.27691,-1.410589 -0.78702,-1.890839 -0.48078,-0.510136 -1.16899,-0.789099 -1.89291,-0.789099 z"
       id="path21693" />
    <path
       style="display:inline;fill:url(#linearGradient26944);fill-opacity:1;stroke-width:0.519251;stroke-linejoin:round"
       d="m 394.42787,90.488015 c -0.25051,0.0036 -0.49626,0.04618 -0.73277,0.134876 -0.63193,0.236975 -1.09886,0.767615 -1.40663,1.424202 l -0.003,0.0057 -8.78708,19.367287 -9.20665,-19.422067 c -0.29716,-0.636746 -0.81267,-1.1378 -1.45521,-1.345652 -0.63344,-0.234368 -1.34432,-0.177641 -1.98078,0.119372 -0.64029,0.298802 -1.15501,0.794594 -1.39835,1.427303 -0.24611,0.639924 -0.17968,1.362895 0.12145,2.008145 l 0.003,0.0036 11.19878,23.201169 -4.90408,10.81277 c -0.30702,0.67546 -0.40838,1.39364 -0.15451,2.03502 0.25386,0.64138 0.81081,1.09722 1.49809,1.40043 l 0.014,0.006 0.0114,0.004 c 0.4027,0.16108 0.7978,0.25786 1.19372,0.25787 0.94242,-1e-5 1.74498,-0.67664 2.1544,-1.60921 l 0.003,-0.006 16.45737,-36.162129 h 0.003 c 0.30641,-0.674153 0.40835,-1.389078 0.15036,-2.027266 -0.25731,-0.636461 -0.82291,-1.077111 -1.50998,-1.361157 -0.41936,-0.177411 -0.84958,-0.279924 -1.26711,-0.273886 z"
       id="path21691" />
    <path
       style="display:inline;fill:url(#linearGradient26944);fill-opacity:1;stroke-width:0.519251;stroke-linejoin:round"
       d="m 212.58653,95.536455 -3.52585,3.525054 c -0.39412,1.553631 -0.6067,3.152461 -0.6067,4.743001 0,8.8905 6.60982,16.09768 14.76354,16.09768 8.15371,0 14.76379,-7.20718 14.76379,-16.09768 0,-1.93201 -0.31264,-3.876444 -0.88495,-5.736899 l -1.17904,1.178777 -3.301,-3.301267 -3.67935,3.678539 -3.74133,-3.741327 -3.39653,3.395449 -3.20681,-3.206816 -2.73616,2.735092 z"
       id="path21689" />
    <path
       style="display:inline;fill:url(#linearGradient26944);fill-opacity:1;stroke-width:0.519251;stroke-linejoin:round"
       d="m 221.58253,79.346436 c -6.5866,1.014236 -11.22205,7.91735 -11.9574,15.203047 l 2.9273,-3.992925 3.72929,2.734973 2.28788,-3.120709 3.65767,2.682476 2.84004,-3.873881 4.26731,3.129416 3.07648,-4.196721 3.76513,2.761501 0.97151,-1.32517 C 234.08161,83.06594 227.87242,78.37789 221.58253,79.346436 Z"
       id="path912" />
  </g>
  <g
     inkscape:groupmode="layer"
     id="layer2"
     inkscape:label="shading"
     transform="translate(1.699341,-63.661542)">
    <path
       id="path19518"
       style="display:inline;fill:url(#linearGradient19810);fill-opacity:1;stroke-width:0.51925;stroke-linejoin:round"
       d="m 223.34709,79.21986 c -0.0273,-2.47e-4 -0.0548,0.0016 -0.0822,0.0016 0.0386,-2.07e-4 0.0772,-6.96e-4 0.11576,-5.17e-4 -0.0112,-1.35e-4 -0.0224,-9.32e-4 -0.0336,-0.001 z m -0.29973,0.0052 c -0.4869,0.0088 -0.9757,0.04609 -1.46502,0.121439 -0.13172,0.02028 -0.26105,0.04688 -0.39119,0.07183 0.626,-0.116287 1.24525,-0.178477 1.85621,-0.193269 z m -1.85621,0.193269 c -0.10565,0.02025 -0.21116,0.04029 -0.31575,0.06356 0.10543,-0.0225 0.21069,-0.04405 0.31575,-0.06356 z m -0.66715,0.148312 c -6.02075,1.550674 -10.20382,8.094143 -10.89907,14.982546 l 2.92747,-3.993036 3.72949,2.735234 2.28771,-3.120741 3.65766,2.682524 2.84014,-3.873665 c 0,0 -2.54614,-6.447316 -4.5434,-9.412862 z m 16.00161,8.604642 c 0.006,0.01108 0.0129,0.02199 0.0191,0.03307 -0.006,-0.01109 -0.0128,-0.022 -0.0191,-0.03307 z m -23.93911,7.364925 -3.52588,3.525366 c -0.39412,1.553626 -0.60668,3.152316 -0.60668,4.742856 0,8.8905 6.60972,16.09773 14.76344,16.09773 7.00235,-8.42703 3.08405,-22.913845 3.08405,-22.913845 l -1.10588,-1.106392 -3.39669,3.395659 -3.20652,-3.207041 -2.73627,2.735236 z" />
  </g>
</svg>
